<?xml version="1.0" encoding="utf-8"?>
<!-- Generator: Adobe Illustrator 22.0.1, SVG Export Plug-In . SVG Version: 6.00 Build 0)  -->
<svg version="1.1" id="Laag_1" xmlns="http://www.w3.org/2000/svg" xmlns:xlink="http://www.w3.org/1999/xlink" x="0px" y="0px"
	 viewBox="0 0 1920 525" style="enable-background:new 0 0 1920 525;" xml:space="preserve">
<style type="text/css">
	.st0{clip-path:url(#SVGID_2_);}
	.st1{fill:#573876;}
	.st2{fill:url(#SVGID_3_);}
	.st3{fill:url(#SVGID_4_);}
	.st4{fill:#ECEFF1;}
	.st5{fill:url(#SVGID_5_);}
	.st6{fill:#F063BD;}
	.st7{fill:#19353C;}
	.st8{fill:#9EBCE6;}
	.st9{fill:#E7BD42;}
	.st10{fill:#FFFFFF;}
	.st11{fill:#B78512;}
	.st12{fill:url(#SVGID_6_);}
	.st13{fill:#F6F01D;}
	.st14{fill:url(#SVGID_7_);}
	.st15{fill:#746092;}
	.st16{fill:#E4D2E4;}
	.st17{fill:#2DBCE6;}
	.st18{fill:url(#SVGID_8_);}
	.st19{fill:url(#SVGID_9_);}
	.st20{fill:url(#SVGID_10_);}
	.st21{opacity:0.2;}
	.st22{fill:#FAE480;}
	.st23{fill:url(#SVGID_11_);}
	.st24{fill:url(#SVGID_12_);}
	.st25{fill:url(#SVGID_13_);}
	.st26{fill:url(#SVGID_14_);}
	.st27{fill:url(#SVGID_15_);}
	.st28{fill:url(#SVGID_16_);}
	.st29{fill:url(#SVGID_17_);}
	.st30{fill:url(#SVGID_18_);}
	.st31{fill:none;}
	.st32{fill:url(#SVGID_19_);}
	.st33{fill:url(#SVGID_20_);}
	.st34{fill:url(#SVGID_21_);}
	.st35{fill:none;stroke:url(#SVGID_22_);stroke-width:4;stroke-miterlimit:10;}
	.st36{fill:none;stroke:url(#SVGID_23_);stroke-width:4;stroke-miterlimit:10;}
	.st37{fill:none;stroke:url(#SVGID_24_);stroke-width:4;stroke-miterlimit:10;}
	.st38{fill:url(#SVGID_25_);}
	.st39{fill:url(#SVGID_26_);}
	.st40{fill:url(#SVGID_27_);}
</style>
<g id="Laag_2_1_">
</g>
<g>
	<g>
		<defs>
			<rect id="SVGID_1_" width="1919.7" height="524.7"/>
		</defs>
		<clipPath id="SVGID_2_">
			<use xlink:href="#SVGID_1_"  style="overflow:visible;"/>
		</clipPath>
		<g id="Laag_1_1_" class="st0">
			<rect x="1645" y="-4" class="st1" width="241" height="220"/>
			
				<linearGradient id="SVGID_3_" gradientUnits="userSpaceOnUse" x1="1795.5" y1="36.5" x2="1921.5803" y2="36.5" gradientTransform="matrix(1 0 0 1 0 26)">
				<stop  offset="0" style="stop-color:#F063BD"/>
				<stop  offset="1" style="stop-color:#746092"/>
			</linearGradient>
			<rect x="1788" class="st2" width="132" height="125"/>
			
				<linearGradient id="SVGID_4_" gradientUnits="userSpaceOnUse" x1="696.5" y1="-9.6622" x2="696.5" y2="177.9929" gradientTransform="matrix(1 0 0 1 0 26)">
				<stop  offset="0" style="stop-color:#9EBCE6"/>
				<stop  offset="1" style="stop-color:#2DBCE6"/>
			</linearGradient>
			<rect x="547" y="-4" class="st3" width="299" height="215"/>
			<path class="st4" d="M885.5,60.3h-61.6c-5.7,0-10.3-4.7-10.3-10.3s4.7-10.3,10.3-10.3h4.1c5.7,0,10.3-4.7,10.3-10.3l0,0
				c0-5.7-4.7-10.3-10.3-10.3h-63.2c-5.7,0-10.3,4.7-10.3,10.3l0,0c0,5.7,4.7,10.3,10.3,10.3h10.7c5.7,0,10.3,4.7,10.3,10.3
				s-4.7,10.3-10.3,10.3h-21.6c-5.7,0-10.3,4.7-10.3,10.3l0,0c0,5.7,4.7,10.3,10.3,10.3h131.6c5.7,0,10.3-4.7,10.3-10.3l0,0
				C895.8,65,891.2,60.3,885.5,60.3z"/>
			
				<linearGradient id="SVGID_5_" gradientUnits="userSpaceOnUse" x1="382" y1="186.7536" x2="382" y2="376.1603" gradientTransform="matrix(1 0 0 1 0 26)">
				<stop  offset="0" style="stop-color:#F063BD"/>
				<stop  offset="1" style="stop-color:#746092"/>
			</linearGradient>
			<rect x="217" y="210" class="st5" width="330" height="190"/>
			<g>
				<g>
					<path class="st6" d="M547,288.8v13.9c-15.6,0-28.2,12.7-28.2,28.2h-13.9C504.8,307.7,523.7,288.8,547,288.8z"/>
				</g>
				<g>
					<path class="st6" d="M547,252.2v13.9c-35.8,0-64.9,29.1-64.9,64.9h-13.9C468.2,287.6,503.6,252.2,547,252.2z"/>
				</g>
				<g>
					<path class="st6" d="M547,206v13.9c-61.2,0-111.1,49.8-111.1,111.1H422C422,262.1,478.1,206,547,206z"/>
				</g>
			</g>
			<g>
				<path class="st7" d="M364.3,327.1c1.5-3.3,3.3-6.5,5.5-9.6c3.7-5.3,8.7-10,14.8-12.2c8.6-3.1,17.8-1,26.7-1.2
					c4.5-0.1,6.6-0.9,10.7,1c3.6,1.7,7.3,4.1,10.5,6.6c12.4,9.8,10.2,33.8,8.5,47.4c-2.9,22.1-8.9,46.9-19.4,66.6
					c-11.8-0.1-23.5-1.4-35.1-3.7c-2.3-0.5-28.6-7.3-28.6-7.9c-2.5-24.6-1.6-49.5,2.6-73.8C361.1,335.5,362.4,331.2,364.3,327.1z"/>
				<path class="st8" d="M373.1,253.1c5-15.8,23.5-23.8,38.2-14c-3.8-5.2-0.1-13.4,6.1-15.5s13.4,0.8,17.7,5.7
					c3.5,4,5.4,9.8,3.3,14.7s-8.9,7.7-13.3,4.6c9.2,6.5,7.8,40.3-7.3,39.8c-8.8-0.3-19.1-5.5-26.4-9.9c-7.6-4.6-20.7-12.1-19.1-21.9
					C372.5,255.4,372.8,254.2,373.1,253.1z"/>
				<path class="st9" d="M380.9,271.8c-0.4-6.2,0.3-14.8,4.6-19.7c5.9-6.8,15.1-2.4,15.7,6c0.2,3.1,1.1,6.9,4.2,7.5
					c3.2,0.6,6.2-3.2,9.3-2.1c2.3,0.9,2.7,4.2,1.8,6.5c-1,2.3-2.8,4.2-3.6,6.5c-1.3,3.4-0.1,7.8,0,11.3c0,4.7,0.1,8.7,3,12.8
					c1,1.4,2.2,2.7,2.1,4.4c-0.1,1.8-1.6,3.2-3,4.3c-5.7,4.6-11.4,9.2-17,13.8c-2.7-4-5.5-8-8.2-12c-0.7-1-1.4-2-1.6-3.2
					c-0.7-4.3,3.7-3.7,5.7-5.6c0.9-0.9,5.3-10.2,3.4-10.8c-4.3-1.4-7.9-2.1-10.9-5.7C382.7,281.9,381.2,277,380.9,271.8z"/>
				<path class="st7" d="M361.2,337.5l-38.6,8.3c-2.2,0.5-4.5-0.9-4.9-3.2L305,284.2c-0.5-2.2,0.9-4.5,3.2-4.9l38.6-8.3
					c2.2-0.5,4.5,0.9,4.9,3.2l12.6,58.4C364.8,334.8,363.4,337,361.2,337.5z"/>
				<path class="st10" d="M358.2,333.4l-34.6,7.5c-2,0.4-4-0.8-4.4-2.8L307.9,286c-0.4-2,0.8-4,2.8-4.4l34.6-7.5
					c2-0.4,4,0.8,4.4,2.8L361,329C361.5,331,360.2,333,358.2,333.4z"/>
				<path class="st8" d="M400.2,345.2c-2,3.7-3.5,6.7-3,6.9c-13.3-4.4-26.6-8.8-39.8-13.2c-5-1.6-10.6-2.5-15.9-2.2
					c-5.6,0.4-6.6,2.5-6.8,8.6c-0.1,2.9,0.6,6,2.6,8.1c4.8,5.2,15.5,8.1,21.9,10.7c8.8,3.5,17.9,6.3,27.2,8.3
					c8.2,1.8,16.9,2.9,24.9,0.4c14.7-4.7,20.4-25.4,28.7-37c3.8-5.4,6.4-13,0.9-18.6c-3.8-3.8-10.1-4.1-15.1-2
					c-8,3.2-12.3,9.7-17.1,16.3C407.6,332.8,403.3,339.8,400.2,345.2z"/>
				<path class="st8" d="M261.8,273.6c-1.3-4.5-1.7-9.5-1.5-14.1c0.3-5,1.2-10.2,4.5-13.9c10.7-12.3,26.6,1,28.9,13.1
					c1.6,8.4,0.8,26.3-8.5,30c-5,2-10.9,0.7-15.2-2.5C265.9,283.1,263.3,278.6,261.8,273.6z"/>
				<path class="st11" d="M257.5,418.7c-13.2-24.8-22.3-51.8-26.7-79.6c-1.6-10.2-2.1-22.1,5.3-29.3c5.6-5.4,13.9-6.5,21.7-7.2
					c11.6-1.1,23.2-2.3,34.8-3.4c7.7-0.8,16.8-1,21.8,5c3,3.6,3.7,8.7,4.1,13.4c3,35.1,0.4,70.6-7.6,104.9"/>
				<path class="st8" d="M332.9,318.8c-0.8-1.6-1.5-3.1-1.8-4.3c-1.9-6.8,2.4-15.7,6.8-20.5c0.7-0.8,1.5-1.5,2.5-1.9
					s2.2-0.2,2.8,0.7c0.9,1.2,0.1,3-0.9,4.1s-2.4,2.2-2.6,3.7c-0.3,1.8,1.3,3.4,2.9,4.3c12.7,7-1.8,10.3,2.1,19.2
					c0.8,1.8-1.1,2.4-3.1,2.6C338.2,326.9,334.9,322.7,332.9,318.8z"/>
				<path class="st11" d="M345.6,319.4c0.2,1.7,0.2,3.5,0.1,5.3c-0.4,12.8,0.6,26.4-1.4,39.1c-0.5,3-2.1,6-4.9,7.2
					c-3.3,1.6-7.3,0.3-10.5-1.5c-6.4-3.5-10.8-8.4-14.5-14.5c-3.5-5.9-8.3-11.1-12.6-16.5c-3.9-4.9-7.9-10-9.8-16
					c-3.8-11.7,6.6-29.9,20-21.1c6,3.9,6.7,9.4,8.9,15.5c2.4,6.8,6.3,13.6,10.2,19.7c-1.5-5.7-1.3-11.8,0.4-17.4
					c1.1-3.5,3.5-7.4,7.2-7.4c2.8-0.1,5.2,2.2,6.2,4.8C345.2,317.4,345.5,318.4,345.6,319.4z"/>
				<path class="st7" d="M288.2,237.5c3.2,3.8,5.7,8.6,8.9,13.2c-5.9,2.1-11.7,4.1-17.6,6.2c-1.6,0.5-3.2,1.2-4.2,2.5
					s-0.7,3.6,0.9,4.2c-3.6-1.5-7.1,2.3-7.1,5.8c0,2.3,1.5,4.5,3.6,5.4c1.8,0.8,3.8,0.6,5.7,1.2c5,1.4,7.8,15.4,9.7,20.2
					c3.8,9.5,7.6,19,11.4,28.5c-4.6,7.3-9.8,15-17.8,18.1c-7,2.7-14.8,1.3-22.2-0.1c-4.7-0.9-9.6-1.9-13.1-5.1
					c-4.7-4.3-2.9-10.1-2.7-15.6c0.4-7.1,0.7-14.5-0.4-21.6c-1.6-9.7-4.2-18.9-4.2-28.8c0-10.1,2.4-20.5,8.3-28.7
					c5.9-8.2,15.8-13.9,25.9-13.2C280.3,230,284.6,233.2,288.2,237.5z"/>
			</g>
			
				<linearGradient id="SVGID_6_" gradientUnits="userSpaceOnUse" x1="300" y1="193.6342" x2="300" y2="24.4229" gradientTransform="matrix(1 0 0 1 0 26)">
				<stop  offset="0" style="stop-color:#E7BD42"/>
				<stop  offset="1" style="stop-color:#F6F01D"/>
			</linearGradient>
			<rect x="217" y="50" class="st12" width="166" height="173"/>
			<g>
				<g>
					<path class="st13" d="M255.1,113.4h6.4c0,7.2,5.8,13,13,13v6.4C263.8,132.8,255.1,124.1,255.1,113.4z"/>
				</g>
				<g>
					<path class="st13" d="M238.3,113.4h6.4c0,16.4,13.4,29.8,29.8,29.8v6.4C254.5,149.6,238.3,133.4,238.3,113.4z"/>
				</g>
				<g>
					<path class="st13" d="M217.1,113.4h6.4c0,28.1,22.9,51,51,51v6.4C242.8,170.8,217.1,145.1,217.1,113.4z"/>
				</g>
			</g>
			<g>
				<g>
					<path class="st13" d="M274.5,95v6.4c-7.2,0-13,5.8-13,13h-6.4C255.1,103.7,263.8,95,274.5,95z"/>
				</g>
				<g>
					<path class="st13" d="M274.5,78.2v6.4c-16.4,0-29.8,13.4-29.8,29.8h-6.4C238.3,94.5,254.5,78.2,274.5,78.2z"/>
				</g>
				<g>
					<path class="st13" d="M274.5,57v6.4c-28.1,0-51,22.9-51,51h-6.4C217.1,82.8,242.8,57,274.5,57z"/>
				</g>
			</g>
			<g>
				<g>
					<path class="st13" d="M291.6,113.4h-6.4c0,7.2-5.8,13-13,13v6.4C282.9,132.8,291.6,124.1,291.6,113.4z"/>
				</g>
				<g>
					<path class="st13" d="M308.4,113.4H302c0,16.4-13.4,29.8-29.8,29.8v6.4C292.1,149.6,308.4,133.4,308.4,113.4z"/>
				</g>
				<g>
					<path class="st13" d="M329.6,113.4h-6.4c0,28.1-22.9,51-51,51v6.4C303.8,170.8,329.6,145.1,329.6,113.4z"/>
				</g>
			</g>
			<g>
				<g>
					<path class="st13" d="M272.2,95v6.4c7.2,0,13,5.8,13,13h6.4C291.5,103.7,282.9,95,272.2,95z"/>
				</g>
				<g>
					<path class="st13" d="M272.2,78.2v6.4c16.4,0,29.8,13.4,29.8,29.8h6.4C308.4,94.5,292.1,78.2,272.2,78.2z"/>
				</g>
				<g>
					<path class="st13" d="M272.2,57v6.4c28.1,0,51,22.9,51,51h6.4C329.6,82.8,303.8,57,272.2,57z"/>
				</g>
			</g>
			
				<linearGradient id="SVGID_7_" gradientUnits="userSpaceOnUse" x1="1448.8103" y1="76" x2="1306.1354" y2="76" gradientTransform="matrix(1 0 0 1 0 26)">
				<stop  offset="0" style="stop-color:#9EBCE6"/>
				<stop  offset="1" style="stop-color:#2DBCE6"/>
			</linearGradient>
			<rect x="1282" y="-12" class="st14" width="200" height="228"/>
			<g>
				<path class="st10" d="M1370.5,165.1c-1.1,6.1-2.2,12.2-3.5,18.3c0.5-2.8,47.5-6.5,51.8-6.8c-4.3-10.8-2.7-23.6-8.7-33.6
					c-5.7-9.5-18.3-14.2-28.8-10.9c-4.2,1.3-5.9,4.6-6.7,9C1373.3,149,1371.9,157.1,1370.5,165.1z"/>
				<path class="st4" d="M1377.3,192.3c12.5-5.3,27.3-3.4,39.1,3.2c11.8,6.6,20.9,17.5,27.2,29.5c-28.1,9.7-59.9,7.9-86.7-4.9
					c4.1,0,6.5-11.7,7.4-14.6C1366.5,199.1,1371.2,194.8,1377.3,192.3z"/>
				<path class="st10" d="M1327,196.2c1.7-7.8-2.6-15.4-5.1-23c-1.9-5.9-2.9-12.2-1.6-18.3c1.2-6.1,4.8-11.8,10.3-14.7
					c12.9-7,21.2,9.4,24.5,18.6c0.5,1.5,1,3,0.6,4.5s-2,2.8-3.5,2.2c0.2,1.7,1.2,3.4,2.5,4.5c-5.7,2.3-9.8,4.6-15.7,0.5
					c1.7,1.2,2.4,5.3,4.8,7c2.7,1.8,5.9,2.4,9,2c1.9,7.2-3.1,10-9.4,10.6c1.1,3.5,4.4,6.3,7.9,7.2c3.7,1,7.8,0.1,10.7-2.2"/>
				<path class="st6" d="M1406.3,190.6c-5.3-6.7,0.9-16.7,1.2-24c0.5-10.9-6.4-34.9-21.8-30.1c-5.6,1.7-10.2,6.2-12.2,11.6
					c-3,8.2,0.4,17.3,3.4,24.9c1.1,2.9,1.6,5.8,4.6,7.4c1.7,0.9,3.7,1.6,4.9,3.1c1.5,2,1.3,4.8,0.6,7.2c-0.8,2.4-2,4.7-2.2,7.2
					c-0.7,8.4,11.7,7.8,16.8,5.5c4.4-2,7.8-5.9,9.1-10.4C1409,193,1407.4,192,1406.3,190.6z"/>
				<path class="st1" d="M1425.3,194.6c2.6-0.3,4.9-2,5.9-4.4s0.5-5.3-1.2-7.3c-2.6,1.3-5.9-0.8-6.7-3.6c-0.7-2.5-1-5.7-0.6-8.3
					c4.7,0.2,9.5-2.5,11.7-6.7c-3.2,2.1-7.2,3.2-11,3.1c0.9-1.1,1.2-2.7,0.7-4.1c-1.7-0.2-3.4-0.5-5.1-0.7c3.7-7,8.5-26.7,19.1-23.2
					c2.7,0.9,5,2.9,6.7,5.3c3.6,5.3,4.1,12,4.3,18.4c0.1,4.9,0.1,10.2-2.7,14.3c-2.2,3.2-6.1,5.7-6.4,9.6c-0.3,3.7,2.7,6.7,5.5,9.2"
					/>
				<path class="st1" d="M1306.4,235.5c-4.5-7.2-3.7-16.9,0.6-24.2c4.4-7.3,11.9-12.3,19.9-15.1s16.6-3.7,25-4.3
					c3.5-0.2,7.5-0.2,9.9,2.4c1.5,1.7,1.9,4.1,2.3,6.3c1.7,11.8,3,23.7,3.9,35.7"/>
				<path class="st15" d="M1440.7,194.8c-6.1-1.6-13.3-1.8-18.1,2.3c-3.2,2.8-4.7,7-5.9,11c-1.7,6-5.6,17.4-3.6,23.5
					c2.1,6.3,10.2,6.9,16,6.5c13.3-0.9,26.4-3.3,39.1-7.2c11.2-3.5,1.6-15.2-3.2-20.8C1458.7,202.8,1450.2,197.3,1440.7,194.8z"/>
				<path class="st7" d="M1358,131.8c-5.5,2-11.6,1.2-17.4,0.5s-12-1.1-17.3,1.4s-9.1,9.1-6.6,14.4c0.5,1,1.2,2,1.4,3.1
					c0.4,3.2-3.4,4.9-6.2,6.4c-4.3,2.2-7.7,6.6-7.6,11.4c0.1,4.8,4.7,9.4,9.4,8.5c3.4-0.7,6.2-3.8,9.6-3.2c1.4,0.3,2.8,1.1,4,0.5
					c1.6-0.8,1.2-3.3-0.1-4.6c-1.3-1.3-3.1-2-4.2-3.4c-1.5-1.9-1.3-4.8,0.4-6.5c1.7-1.7,4.7-1.9,6.5-0.4c-1.8-1.4-3.4-7-3.2-8.9
					C1339.9,149.6,1352.1,144.8,1358,131.8z"/>
				<path class="st10" d="M1382.3,161.2c0.1-3,0.2-6,0.3-9c1.2,3.5,3.1,7.5,6.7,8.1c4,0.7,7.9-3.3,11.8-2.2c0-1.5,1.1-2.9,2.6-3.3
					c1.4-0.3,2.8,0.4,3.8,1.3c3.2-8.1-7.2-18.4-13.8-21.6c-7.2-3.6-17.2-2.4-21.9,4.2c-3.6,5.1-3.5,11.9-3.1,18.1
					c0.1,1.6,0.2,3.3,1.1,4.6C1371.4,163.7,1382.3,160,1382.3,161.2z"/>
				<path class="st6" d="M1398.3,137.3c2.4-0.1,4.4,2.7,3.6,5s-4.1,3.1-5.9,1.6c-1.8-1.6-1.4-5,0.7-6.1"/>
				<path class="st10" d="M1438.7,145c2.1,3.1,2.5,7.4,1,10.8c2.1-1.4,5.1,0.4,5.8,2.8c0.7,2.4-0.1,5-1,7.3s-1.9,4.8-1.5,7.3
					c0.3,1.6,1.5,3.3,3.2,3.3c1.9,0,2.9-2.1,3.5-3.8c1.4-4.4,2.2-8.9,2.3-13.5c2.8,0.3,4.7,3,5.2,5.8c0.5,2.7-0.1,5.5-0.2,8.3
					s0.3,5.8,2.2,7.7c3.4,3.4,9.6,1.5,12.7-2.2c-2.7,1.1-5.7-1.2-6.5-3.9c-0.9-2.7-0.2-5.7,0.2-8.5c0.5-3.1,0.7-6.4-0.2-9.4
					s-3-5.8-6-6.8s-6.8,0.4-7.9,3.3c0.6-5.6-2.2-11.5-7-14.5c-1.9-1.2-10.3-4.5-12.1-1.8C1430.2,140.2,1437.2,142.8,1438.7,145z"/>
			</g>
			<rect y="70" class="st1" width="217" height="132"/>
			<rect x="383" y="399" class="st16" width="163.8" height="125.7"/>
			<g>
				<polygon class="st8" points="547.8,210 547.8,70 383,70 383,151.4 547.5,210 				"/>
				<polygon class="st6" points="547.5,210 383,151.4 383,210 				"/>
			</g>
			<g>
				<g>
					<path class="st17" d="M449.6,69.4l6-6c6.7,6.7,17.7,6.7,24.4,0l6,6C476,79.4,459.7,79.4,449.6,69.4z"/>
				</g>
				<g>
					<path class="st17" d="M433.8,85.2l6-6c15.4,15.4,40.6,15.4,56,0l6,6C483.1,104,452.6,104,433.8,85.2z"/>
				</g>
				<g>
					<path class="st17" d="M413.8,105.2l6-6c26.4,26.4,69.5,26.4,95.9,0l6,6C492,134.9,443.6,134.9,413.8,105.2z"/>
				</g>
			</g>
			<rect x="1217" y="164" class="st13" width="71" height="53"/>
			<path class="st11" d="M1778.5,166.7c-19.3,0-35,15.7-35,35h69.9C1813.5,182.4,1797.8,166.7,1778.5,166.7z"/>
			<path class="st9" d="M1832.5,176.5c-32.5,0.4-23.3,18.7-48,18.7s-12.8-47.2-61.7-62.8c-49-15.6-79.5,17.5-79.5,17.5v66.6h232.2
				C1875.5,216.5,1865,176.2,1832.5,176.5z"/>
			<g>
				<path class="st11" d="M1682.5,163.7c-29.2,0-52.9,23.7-52.9,52.9h105.7C1735.4,187.3,1711.7,163.7,1682.5,163.7z"/>
			</g>
			<path class="st11" d="M1764.2,192.2c-13.4,0-24.3,10.9-24.3,24.3h48.6C1788.5,203.1,1777.6,192.2,1764.2,192.2z"/>
			<rect x="1117.2" y="451" class="st17" width="100" height="74"/>
			<rect x="942" class="st1" width="176.1" height="292"/>
			<rect x="217" y="-6" class="st7" width="330" height="76"/>
			<rect y="-6" class="st9" width="217" height="76"/>
			<rect x="1430" y="216" class="st13" width="490" height="76"/>
			<g>
				<g>
					<path class="st13" d="M1140.6,480.7V493c0,5.5,4.3,9.9,9.7,10.3v9l9-9h26.4c5.7,0,10.3-4.6,10.3-10.3v-12.3
						c0-5.7-4.6-10.3-10.3-10.3h-34.8C1145.3,470.4,1140.6,475,1140.6,480.7z M1177.2,487.2c0-1.8,1.5-3.2,3.2-3.2
						c1.8,0,3.2,1.5,3.2,3.2s-1.5,3.2-3.2,3.2C1178.7,490.4,1177.2,489,1177.2,487.2z M1165.1,487.2c0-1.8,1.5-3.2,3.2-3.2
						c1.8,0,3.2,1.5,3.2,3.2s-1.5,3.2-3.2,3.2C1166.5,490.4,1165.1,489,1165.1,487.2z M1152.9,487.2c0-1.8,1.5-3.2,3.2-3.2
						c1.8,0,3.2,1.5,3.2,3.2s-1.5,3.2-3.2,3.2C1154.4,490.4,1152.9,489,1152.9,487.2z"/>
				</g>
			</g>
			<g>
				<polygon class="st6" points="1598.8,406 1598.8,291 1434,291 1434,363.8 1548.6,406 				"/>
				<polygon class="st8" points="1548.6,406 1434,363.8 1434,406 				"/>
			</g>
			<g>
				<polygon class="st6" points="1598.8,406 1548.6,406 1598.8,424.5 				"/>
				<polygon class="st1" points="1548.6,406 1434,406 1434,525 1598.8,525 1598.8,424.5 				"/>
			</g>
			<rect x="1480" y="106" class="st6" width="165" height="110"/>
			<rect x="945" y="336" class="st8" width="172" height="189"/>
			<g>
				<polygon class="st15" points="1747,290.9 1598.7,290.9 1598.7,424.5 1747,479.1 				"/>
				<polygon class="st8" points="1598.7,424.5 1598.7,479.8 1747,479.8 1747,479.1 				"/>
			</g>
			<rect x="1746" y="290.9" class="st16" width="174" height="188.9"/>
			<path class="st15" d="M627,283h-80V148.2c0-22.1,17.9-40,40-40l0,0c22.1,0,40,17.9,40,40V283z"/>
			<path class="st15" d="M675,283h-48v-80.9c0-13.3,10.7-24,24-24l0,0c13.3,0,24,10.7,24,24V283z"/>
			<g>
				<g>
					<path class="st10" d="M768.1,36c1.8,5.6-0.3,11.9,1.7,17.4c2.5,6.6,10.2,9.8,13.6,16c3.2,5.9,1.6,13.4-2.3,18.8
						c-3.9,5.4-9.8,9-15.7,12c-18.2,9.2-39.5,13.8-59.2,8.6c-9.8-2.6-18.9-7.5-26.4-14.3c-6.2-5.6-11.6-14-9-21.9
						c2.2-6.7,9.4-10.7,12.3-17.2c3.7-8.2-0.3-18.3,3-26.7c5.9-14.6,26.7-13.3,39.3-11.4C737.4,19.2,763.9,23.1,768.1,36z"/>
					<path class="st1" d="M661.6,149.7c-0.4,0-0.7,0-1.1,0c-4.8-0.1-9.2-3-12.4-6.7c-3.2-3.6-5.3-8-7.9-12.1
						c-7.5-12.3-18.2-22.7-30.6-29.9c-1.8,12.7,1.6,25.7,7.5,37.1c5.8,11.4,13.9,21.5,21.9,31.5c4.6,5.7,9.4,11.7,16.1,14.9
						c10.6,5.1,23.7,1.8,33.1-5.2c13.9-10.3,23-24.5,22.8-41.7c-0.1-12.8-5.5-24.1-20.3-21.6c-11,1.9-11.5,19.8-17.5,27.1
						C670.2,146.6,666.1,149.4,661.6,149.7z"/>
					<path class="st15" d="M686.7,121.9c-0.1,0.3-0.2,0.5-0.2,0.8c-5,20-1,39.7,3.7,59.3c3.8,15.9,7.5,31.8,11.3,47.8
						c1.5,6.2,1.5,14.8,7,17.8c2.7,1.5,7.5,1.6,10.5,2.1c10.1,1.6,20.6,2.1,30.8,0.7c6.5-0.9,29-5.3,31-13.3
						c4.8-16.8,7.9-34.7,8.7-52.2c0.3-7.3-0.1-13.1,1.4-20.4c1.8-8.9,2.6-18.1,2.1-27.2c-0.3-6.5-1.1-13.3-2.9-19.5
						c-1.9-6.5-4.8-7-11-9.4c-23.1-8.9-49.3-11.9-72.8-2.7C697.5,109.2,689.4,112.7,686.7,121.9z"/>
					<path class="st9" d="M720.9,81.1c0,0,0.5,15.7-0.1,17.6c-0.4,1.3-6.3,6.3-9.9,9.2c-1.5,1.2-1.5,3.5-0.1,4.8
						c3.8,3.2,10.5,8.5,15.3,9.3c6.5,1,21.9-0.5,32.2-13.4c1.2-1.5,0.7-3.8-1-4.7c-9.6-5.1-10.1-4.5-10.7-7.2
						c-0.6-3.1-7.7-34.8-7.7-34.8L720.9,81.1z"/>
					<path class="st11" d="M739.1,76.7L721,88.6c-0.2,4.4-0.6,9.1-0.9,10.1C738.3,94.2,739.1,76.7,739.1,76.7z"/>
					<path class="st1" d="M787.3,141.2c-1.9,3.3-4.5,6.3-7.2,9.1c-17.4,17.9-47.7,42.4-71.3,20.2c-4.5-4.2-7.6-9.6-10.7-15
						c-8.5-14.7-16.9-29.4-25.4-44.1c-3-5.2-5.9-11.9-2.4-16.7c2.3-3.3,6.9-4.3,10.8-3.3s7.2,3.4,10.3,6
						c14.8,12.6,25.7,29.7,30.9,48.5c12-6.9,23.9-14.1,36.1-20.7c7.2-3.9,21.3-12.1,28.6-4.2c3.8,4.1,4.3,10.4,2.5,15.7
						C788.9,138.2,788.2,139.8,787.3,141.2z"/>
					<path class="st9" d="M697.2,101.8c0,0-0.9-13-6.6-20.5c-5.7-7.5-14.4-20.5-18.9-16s-4.5,15.7,0,21.7s8.5,15.2,10.3,21
						C683.8,113.7,692.6,108.8,697.2,101.8z"/>
					<path class="st9" d="M703.8,54.8c0,0,0.4,24,14.7,32.9c1.5,1,3.5,1.2,5.2,0.7c10.5-3.2,13.8-14.7,15.1-20.8
						c3.9-3.9,4.3-15.8-6.6-11.7c-6.3,1.1-6.7-11.3-13.7-14.9C718.5,41.2,707.6,34.5,703.8,54.8z"/>
					<path class="st7" d="M683.5,122.2h-57.4c-3,0-5.6-1.9-6.5-4.7l-20.4-65c-1.4-4.4,1.9-8.8,6.5-8.8h57.4c3,0,5.6,1.9,6.5,4.7
						l20.4,65C691.3,117.8,688.1,122.2,683.5,122.2z"/>
				</g>
				<path class="st9" d="M609.2,75.8c1.3-2.8,3.9-5.8,6.8-4.8c2.6,0.9,3.1,4.2,3.2,7c0.4,8.5,0.7,17,1.1,25.6
					c0.4,9.9-8,13.3-10.8,3.2C606.7,96.6,604.7,85.8,609.2,75.8z"/>
			</g>
			<g>
				<g>
					<polygon class="st15" points="547,284 752.3,284 547,210.8 					"/>
					<polygon class="st11" points="846,210 547,210 547,210.8 752.3,284 846,284 					"/>
				</g>
			</g>
			<g>
				<g>
					<g>
						<rect x="1483.7" y="310" class="st4" width="81.9" height="62.4"/>
					</g>
					<g>
						<rect x="1493.8" y="319.2" class="st8" width="61.7" height="44"/>
					</g>
					<g>
						<path class="st13" d="M1530.3,329.4c0,2.3-1.8,4.1-4.1,4.1c-2.3,0-4.1-1.8-4.1-4.1c0-2.3,1.8-4.1,4.1-4.1
							S1530.3,327.1,1530.3,329.4z"/>
					</g>
					<g>
						<polygon class="st7" points="1493.8,343.6 1507.7,329.7 1528.7,350.8 1540.5,339 1555.4,353.8 1555.4,363.2 1493.8,363.2 
													"/>
					</g>
				</g>
				<g>
					<g>
						<rect x="1461.6" y="328.7" class="st10" width="81.9" height="62.4"/>
					</g>
					<g>
						<rect x="1471.7" y="337.9" class="st8" width="61.7" height="44"/>
					</g>
					<g>
						<circle class="st13" cx="1504.2" cy="348.2" r="4.1"/>
					</g>
					<g>
						<polygon class="st7" points="1471.7,362.4 1485.6,348.5 1506.7,369.5 1518.5,357.7 1533.4,372.6 1533.4,381.9 1471.7,381.9 
													"/>
					</g>
				</g>
			</g>
			<g>
				<path class="st6" d="M432.8,195.1c7,0,13.6-2.8,18.6-7.7c4.6-4.6,7.2-10.5,7.6-16.9l-47.6-16.9c-3.2,4.5-5,9.8-4.9,15.4
					c0,7,2.8,13.6,7.7,18.6C419.2,192.4,425.8,195.1,432.8,195.1z"/>
				<path class="st7" d="M432.7,133.8c-19.3,0-35,15.8-35,35.1s15.8,35,35.1,35c19.3,0,35-15.8,35-35.1
					C467.8,149.4,452,133.8,432.7,133.8z M451.4,187.4c-5,5-11.5,7.7-18.6,7.7c-7,0-13.6-2.7-18.6-7.7s-7.7-11.5-7.7-18.6
					c0-7,2.7-13.6,7.7-18.6s11.5-7.7,18.6-7.7c7,0,13.6,2.7,18.6,7.7s7.7,11.5,7.7,18.6C459.1,175.8,456.3,182.4,451.4,187.4z"/>
				<g>
					<g>
						<g>
							
								<rect x="467.8" y="164.3" transform="matrix(1 -2.271235e-03 2.271235e-03 1 -0.3819 1.1027)" class="st7" width="35" height="8.8"/>
						</g>
					</g>
				</g>
				<g>
					<g>
						<g>
							
								<rect x="479.5" y="159.9" transform="matrix(1 -2.271235e-03 2.271235e-03 1 -0.3817 1.1425)" class="st7" width="46.7" height="17.5"/>
						</g>
					</g>
				</g>
				<g>
					<g>
						<g>
							<g>
								<path class="st10" d="M418.5,171.9c-2.4,0-4.3-2-4.3-4.5c0.1-5.1,2.2-9.8,5.8-13.3c3.7-3.5,8.5-5.4,13.5-5.3
									c2.4,0,4.3,2,4.3,4.5c0,2.4-2,4.3-4.5,4.3c-2.7-0.1-5.3,1-7.3,2.9s-3.1,4.4-3.1,7.2C422.9,170,420.9,171.9,418.5,171.9z"/>
							</g>
						</g>
					</g>
				</g>
			</g>
			<g>
				<path class="st7" d="M582.4,33.6h0.4c9.5,3.6,9.5,3.1,0.1,6.7h-0.5V33.6z"/>
				<path class="st7" d="M589.9,37c0,1-6.3,3.1-7.2,3.3h-0.4V37H589.9z"/>
				<rect x="273" y="23" class="st4" width="28" height="29"/>
				<rect x="272" y="37" class="st10" width="28" height="15"/>
				<rect x="298" y="22" class="st11" width="3" height="32"/>
				<rect x="298" y="37" class="st9" width="3" height="17"/>
				<rect x="272" y="23" class="st11" width="11" height="29"/>
				<rect x="272" y="37" class="st9" width="11" height="15"/>
				<rect x="302" y="17" class="st4" width="245" height="40"/>
				<rect x="301" y="36" class="st10" width="246" height="21"/>
				<polygon class="st4" points="546.5,18.4 582.5,33.2 582.5,40.6 546.5,55.4 546.3,55.4 546.3,18.4 				"/>
				<polygon class="st10" points="582.5,36.9 582.5,40.6 546.5,55.4 546.3,55.4 546.3,36.9 				"/>
				<rect x="301" y="17" class="st11" width="29" height="40"/>
				<rect x="301" y="37" class="st9" width="28.6" height="19.8"/>
				<rect x="484" y="17" class="st11" width="63" height="40"/>
				<rect x="484" y="36" class="st9" width="63" height="21"/>
				<path class="st11" d="M386,8h-85v4.3V18h28.6l7.9-5.7h38.1c0.3,0.4,0.6,0.8,1,1.3c3.7,4.9,2.8,4.9,6.5,0c0.4-0.5,0.7-0.9,1-1.3
					h1.9V8z"/>
			</g>
			<circle class="st4" cx="515" cy="37" r="17"/>
			<rect y="202" class="st8" width="217" height="323"/>
			<g>
				<polygon class="st8" points="1434,216 1217,216 1217,283.9 1434,363.8 				"/>
				<polygon class="st16" points="1217,283.9 1217,525.4 1434,525.4 1434,363.8 				"/>
			</g>
			<rect x="1118" y="141" class="st10" width="99" height="310"/>
			<polygon class="st16" points="0.4,243.4 0,400.4 0,442.8 215.6,521.4 217,520.4 217,322.4 			"/>
			
				<linearGradient id="SVGID_8_" gradientUnits="userSpaceOnUse" x1="1031.5" y1="107.1462" x2="1031.5" y2="411.0922" gradientTransform="matrix(1 0 0 1 0 26)">
				<stop  offset="0" style="stop-color:#746092"/>
				<stop  offset="1" style="stop-color:#E4D2E4"/>
			</linearGradient>
			<polygon class="st18" points="945.3,92 945,373.6 945,407.3 1116.9,470 1118,469.2 1118,155 			"/>
			
				<linearGradient id="SVGID_9_" gradientUnits="userSpaceOnUse" x1="899.5" y1="86.8784" x2="899.5" y2="251.8402" gradientTransform="matrix(1 0 0 1 0 26)">
				<stop  offset="0" style="stop-color:#E7BD42"/>
				<stop  offset="1" style="stop-color:#F6F01D"/>
			</linearGradient>
			<rect x="846" y="95" class="st19" width="107" height="189"/>
			<rect x="846" y="-4" class="st6" width="107" height="99"/>
			<g>
				<g>
					<path class="st13" d="M913,187.3c-6.7-6.9-17.8-7-24.7-0.3s-7,17.8-0.3,24.7s17.8,7,24.7,0.3S919.8,194.2,913,187.3z
						 M905.8,207.5c-3.8,2.5-8.9,2-12.2-1.3c-3.3-3.4-3.6-8.5-1-12.2c0.3-0.5,0.7-1,1.2-1.4c3.8-3.7,9.9-3.6,13.6,0.2
						c3.7,3.8,3.6,9.9-0.2,13.6C906.8,206.8,906.3,207.2,905.8,207.5z"/>
				</g>
				<g>
					<path class="st13" d="M930.9,238.5c1.4-1.1,2.8-2.3,4.1-3.6s2.6-2.7,3.7-4.1l-8.7-8.9c1.7-2.3,3.2-4.7,4.3-7.2l12,3.4
						c1.4-3.4,2.4-7,3-10.6l-12-3.4c0.3-2.8,0.4-5.6,0.1-8.4l12.1-3.1c-0.5-3.6-1.4-7.2-2.7-10.7l-12.1,3.1c-1.1-2.5-2.4-5-4.1-7.3
						l8.9-8.7c-1.1-1.4-2.3-2.8-3.6-4.1s-2.7-2.6-4.1-3.7l-8.9,8.7c-2.3-1.7-4.7-3.2-7.2-4.3l3.4-12c-3.4-1.4-7-2.4-10.6-3l-3.4,12
						c-2.8-0.3-5.6-0.4-8.4-0.1l-3.1-12.1c-3.6,0.5-7.2,1.4-10.7,2.7l3.1,12.1c-2.5,1.1-5,2.4-7.3,4.1l-8.7-8.9
						c-1.4,1.1-2.8,2.3-4.1,3.6s-2.6,2.7-3.7,4.1l8.7,8.9c-1.7,2.3-3.2,4.7-4.3,7.2l-12-3.4c-1.4,3.4-2.4,7-3,10.6l12,3.4
						c-0.3,2.8-0.4,5.6-0.1,8.4l-12.1,3.1c0.5,3.6,1.4,7.2,2.7,10.7l12.1-3.1c1.1,2.5,2.4,5,4.1,7.3l-8.9,8.7
						c1.1,1.4,2.3,2.8,3.6,4.1s2.7,2.6,4.1,3.7l8.9-8.7c2.3,1.7,4.7,3.2,7.2,4.3l-3.4,12c3.4,1.4,7,2.4,10.6,3l3.4-12
						c2.8,0.3,5.6,0.4,8.4,0.1l3.1,12.1c3.6-0.5,7.2-1.4,10.7-2.7l-3.1-12.1c2.5-1.1,5-2.4,7.3-4.1L930.9,238.5z M884.1,215.5
						c-8.8-9-8.7-23.6,0.4-32.4c9-8.8,23.6-8.7,32.4,0.4c8.8,9,8.7,23.6-0.4,32.4C907.5,224.7,892.9,224.6,884.1,215.5z"/>
				</g>
			</g>
			<g>
				<path class="st10" d="M899.5,314.4L899.5,314.4c-23.5,0-42.5-19-42.5-42.5v-26c0-23.5,19-42.5,42.5-42.5l0,0
					c23.5,0,42.5,19,42.5,42.5v26C942,295.4,923,314.4,899.5,314.4z"/>
				<path class="st8" d="M869.6,215.7c8.1,6.8,18.5,10.9,29.9,10.9s21.8-4.1,29.9-10.9c-7.7-7.6-18.2-12.3-29.9-12.3l0,0
					C887.8,203.4,877.3,208.1,869.6,215.7z"/>
				<path class="st8" d="M866.8,180.2L866.8,180.2c-2.2,0-3.9-1.8-3.9-3.9V166c0-2.2,1.8-3.9,3.9-3.9l0,0c2.2,0,3.9,1.8,3.9,3.9
					v10.2C870.8,178.4,869,180.2,866.8,180.2z"/>
				<path class="st8" d="M931.4,180.2L931.4,180.2c-2.2,0-3.9-1.8-3.9-3.9V166c0-2.2,1.8-3.9,3.9-3.9l0,0c2.2,0,3.9,1.8,3.9,3.9
					v10.2C935.3,178.4,933.5,180.2,931.4,180.2z"/>
				<path class="st10" d="M899.5,206.2L899.5,206.2c-17.6,0-31.9-14.3-31.9-31.9V168c0-17.6,14.3-31.9,31.9-31.9l0,0
					c17.6,0,31.9,14.3,31.9,31.9v6.3C931.4,191.9,917.1,206.2,899.5,206.2z"/>
				<path class="st8" d="M880.2,142.5c-7.7,5.8-12.7,15.1-12.7,25.5v6.3c0,0.7,0,1.4,0.1,2.2c4.7-13,17.2-22.2,31.8-22.2
					s27.1,9.3,31.8,22.2c0-0.7,0.1-1.4,0.1-2.2V168c0-10.5-5-19.7-12.8-25.6c-6,1.5-12.5,2.3-19.3,2.3
					C892.4,144.8,886,144,880.2,142.5z"/>
				<circle class="st7" cx="884.2" cy="173.9" r="5.5"/>
				<circle class="st7" cx="913.3" cy="173.9" r="5.5"/>
				<path class="st8" d="M908.4,186.1c0,5-4.1,9.1-9.1,9.1s-9.1-4.1-9.1-9.1H908.4z"/>
			</g>
			
				<linearGradient id="SVGID_10_" gradientUnits="userSpaceOnUse" x1="1203" y1="-17.6374" x2="1203" y2="169.7155" gradientTransform="matrix(1 0 0 1 0 26)">
				<stop  offset="0" style="stop-color:#746092"/>
				<stop  offset="1" style="stop-color:#E4D2E4"/>
			</linearGradient>
			<polygon class="st20" points="1118,154.9 1288,216 1288,-17 1118,-17 			"/>
			<polygon class="st13" points="1288,124.1 1514,41.5 1482,-9 1288,-9 			"/>
			<g>
				<g>
					<rect x="983.2" y="364.5" class="st10" width="93.8" height="135.8"/>
				</g>
				<g>
					<rect x="983.2" y="406.2" class="st16" width="93.8" height="4.6"/>
				</g>
				<g>
					<rect x="983.2" y="451.1" class="st16" width="93.8" height="4.6"/>
				</g>
				<g>
					<path class="st11" d="M1019.1,378.3h23.4c1.3,0,2.3-1,2.3-2.3l0,0c0-1.3-1-2.3-2.3-2.3h-23.4c-1.3,0-2.3,1-2.3,2.3l0,0
						C1016.9,377.3,1017.9,378.3,1019.1,378.3z"/>
				</g>
				<g>
					<path class="st11" d="M1019.1,422.7h23.4c1.3,0,2.3-1,2.3-2.3l0,0c0-1.3-1-2.3-2.3-2.3h-23.4c-1.3,0-2.3,1-2.3,2.3l0,0
						C1016.9,421.7,1017.9,422.7,1019.1,422.7z"/>
				</g>
				<g>
					<path class="st11" d="M1019.1,467.2h23.4c1.3,0,2.3-1,2.3-2.3l0,0c0-1.3-1-2.3-2.3-2.3h-23.4c-1.3,0-2.3,1-2.3,2.3l0,0
						C1016.9,466.1,1017.9,467.2,1019.1,467.2z"/>
				</g>
			</g>
			<path class="st17" d="M1843.6,331.1c-4.3,0-7.7-3.5-7.7-7.7v-2.6c0-4.3-3.5-7.7-7.7-7.7h-26.7c-4.3,0-7.7,3.5-7.7,7.7v2.6
				c0,4.3-3.5,7.7-7.7,7.7h-19.4V459h96.3V331.1H1843.6z M1814.8,326.5c-2.9,0-5.3-2.4-5.3-5.3s2.4-5.3,5.3-5.3s5.3,2.4,5.3,5.3
				C1820,324.2,1817.7,326.5,1814.8,326.5z"/>
			<rect x="1778.2" y="344.6" class="st4" width="73" height="105.4"/>
			<path class="st7" d="M1839.3,354.4H1789c-5.2,0-9.5-4.2-9.5-9.5v-15.4c0-0.8,0.7-1.5,1.5-1.5s1.5,0.7,1.5,1.5v15.4
				c0,3.6,2.9,6.5,6.5,6.5h50.3c3.6,0,6.5-2.9,6.5-6.5v-15.4c0-0.8,0.7-1.5,1.5-1.5s1.5,0.7,1.5,1.5v15.4
				C1848.8,350.1,1844.6,354.4,1839.3,354.4z"/>
			<g>
				<g>
					<g>
						<polygon class="st7" points="1508.5,477.6 1504.9,485.5 1540.4,485.5 1540.4,485.5 1536.8,477.6 						"/>
					</g>
				</g>
			</g>
			<g>
				<g>
					<g>
						<path class="st7" d="M1513,452.3l-22.1,48h7.2l6.8-14.8l3.7-7.9l12.3-26.6C1518.2,451.4,1515.6,451.8,1513,452.3z"/>
					</g>
				</g>
			</g>
			<g>
				<g>
					<g>
						<path class="st7" d="M1530.9,449.2c-2.2,0.4-4.5,0.8-6.7,1.2l12.5,27.2l3.7,7.9l6.8,14.8h7.2L1530.9,449.2z"/>
					</g>
				</g>
			</g>
			<g>
				<g>
					<g>
						<g>
							<path class="st7" d="M1498.5,420.2c7.2,2.7,12.3,9.7,12.3,17.8c0,8.2-5.1,15.1-12.3,17.8c-2.1,0.8-4.3,1.2-6.7,1.2
								c-10.5,0-19-8.5-19-19s8.5-19,19-19C1494.2,419,1496.5,419.4,1498.5,420.2z"/>
						</g>
					</g>
				</g>
				<g>
					<g>
						<g>
							<g>
								<rect x="1538.5" y="430.3" class="st13" width="7.8" height="15.4"/>
							</g>
						</g>
					</g>
					<g class="st21">
						<g>
							<g>
								<rect x="1538.6" y="437.9" class="st22" width="7.8" height="7.8"/>
							</g>
						</g>
					</g>
				</g>
				<g>
					<g>
						<g>
							<g>
								<rect x="1546.3" y="432.9" class="st7" width="9.5" height="10.2"/>
							</g>
						</g>
					</g>
				</g>
				<g>
					<g>
						<g>
							<path class="st8" d="M1510.9,438c0-8.2-5.1-15.1-12.3-17.8c13.3,2.3,26.7,4.6,40,6.9c0,7.3,0,14.6,0,21.9
								c-5.2,0.9-10.4,1.8-15.5,2.7c-1.4,0.2-2.8,0.5-4.2,0.7c-2.2,0.4-4.4,0.8-6.6,1.1c-1.6,0.3-3.2,0.6-4.8,0.8
								c-3,0.5-5.9,1-8.9,1.5C1505.8,453.1,1510.9,446.2,1510.9,438z"/>
						</g>
					</g>
				</g>
				<g>
					<g>
						<g>
							<path class="st10" d="M1472.8,438.3c0,0,8.5,10.2,19,10.2s19-10.2,19-10.2s-8.5-10.2-19-10.2
								C1481.3,428.1,1472.8,438.3,1472.8,438.3z"/>
						</g>
					</g>
				</g>
				<g>
					<g>
						<g>
							<g>
								<g>
									<path class="st17" d="M1491.9,429.5c4.9,0,8.8,3.9,8.8,8.8c0,3.3-1.8,6.1-4.4,7.6c-1.3,0.8-2.8,1.2-4.4,1.2
										c-2.9,0-5.5-1.4-7.1-3.6c-1.1-1.5-1.7-3.3-1.7-5.2C1483,433.4,1487,429.5,1491.9,429.5z"/>
								</g>
							</g>
						</g>
					</g>
				</g>
				<g>
					<g>
						<g>
							<g>
								<g>
									<path class="st7" d="M1491.9,433.7c2.5,0,4.6,2.1,4.6,4.6c0,1.7-0.9,3.2-2.3,4c-0.7,0.4-1.5,0.6-2.3,0.6
										c-1.5,0-2.9-0.7-3.7-1.9c-0.6-0.8-0.9-1.7-0.9-2.7C1487.2,435.8,1489.3,433.7,1491.9,433.7z"/>
								</g>
							</g>
						</g>
					</g>
				</g>
				<g>
					<g>
						<g>
							<path class="st10" d="M1494.1,435.1c0,0.8,0.7,1.5,1.5,1.5s1.5-0.7,1.5-1.5s-0.7-1.5-1.5-1.5
								C1494.8,433.6,1494.1,434.2,1494.1,435.1z"/>
						</g>
					</g>
				</g>
				<g>
					<g>
						<g>
							<path class="st17" d="M1510.9,438.1h27.7c0,3.6,0,7.3,0,10.9c-5.2,0.9-10.4,1.8-15.5,2.7c-1.4,0.2-2.8,0.5-4.2,0.7
								c-2.2,0.4-4.4,0.8-6.6,1.1c-1.6,0.3-3.2,0.6-4.8,0.8c-3,0.5-5.9,1-8.9,1.5C1505.7,453.1,1510.9,446.2,1510.9,438.1z"/>
						</g>
					</g>
				</g>
			</g>
			<g>
				<g>
					<g>
						<g>
							<path class="st17" d="M1183,253.8c2.2-2.9,3.4-6.4,3.4-10c0-2.5-0.6-5-1.8-7.3c-1.8-3.5-4.7-6-8.1-7.4
								c-0.9-0.4-1.9-0.7-2.8-0.9l-2.6,6.5l0,0c0,0.1-0.1,0.2-0.1,0.2c3,0.2,5.9,1.9,7.4,4.8c1.2,2.4,1.3,5,0.4,7.4
								c-0.8,2-2.2,3.8-4.3,4.9l-1.6,0.9l-23.5,12.3c-4.4,2.3-9.9,0.6-12.2-3.8c-1.6-3.1-1.3-6.7,0.6-9.4c0.8-1.2,1.9-2.1,3.2-2.8
								l22.4-11.7c0.1-1.8,0.5-3.6,1.2-5.4l1.5-3.6c-1.1,0.3-2.1,0.7-3.1,1.2l-25.2,13.2c-2,1-3.7,2.5-5,4.1
								c-3.9,4.9-4.9,11.8-1.8,17.7c4.1,7.9,13.9,10.9,21.8,6.8l25.2-13.2C1179.9,257.1,1181.6,255.6,1183,253.8z"/>
						</g>
					</g>
				</g>
				<g>
					<g>
						<g>
							<path class="st7" d="M1194.3,244.2l10.7-26.3c3.3-8.2-0.6-17.7-8.9-21c-5.8-2.3-12.1-1.1-16.5,2.7c-1.9,1.6-3.5,3.7-4.5,6.2
								l-0.9,2.2v0.1l-8.3,20.5l-1.5,3.6c-0.7,1.8-1.1,3.6-1.2,5.4c-0.1,1.6,0.1,3.1,0.5,4.7c1.2,4.6,4.4,8.7,9.1,10.8l1.6-0.9
								c2.1-1.1,3.5-2.8,4.3-4.9c-0.9-0.1-1.9-0.3-2.8-0.6c-4.5-1.8-6.8-7-5.1-11.5c0-0.1,0.1-0.2,0.1-0.2l0,0l2.6-6.5l6-14.9v-0.1
								l2-4.8c0.6-1.6,1.7-2.9,3-3.9c2.5-1.8,5.8-2.3,8.8-1.1c4.6,1.9,6.9,7.2,5,11.8l-10.7,26.3c-0.3,0.9-0.8,1.6-1.4,2.3
								c0,3.6-1.2,7.1-3.4,10C1187.9,252.7,1192.3,249.2,1194.3,244.2z"/>
						</g>
					</g>
				</g>
			</g>
			<g>
				<polygon class="st9" points="1492.5,216.3 1451.7,234.7 1492.5,253.8 1749,253.8 1749,216.3 				"/>
				<g>
					<path class="st17" d="M1492.7,216.3c1.6,0.7,2.8,3.2,2.8,6.2s-1.2,5.5-2.9,6.2l0,0l0,0l0,0l0,0c1.6,0.7,2.8,3.3,2.8,6.4
						c0,3.1-1.2,5.7-2.9,6.4v0.1h217.3v-12.8l0,0v-12.4L1492.7,216.3z"/>
					<path class="st17" d="M1492.8,241.6c1.6,0.8,2.7,3.2,2.7,6.1c0,3-1.2,5.5-2.8,6.1H1710v-12.3L1492.8,241.6L1492.8,241.6z"/>
				</g>
				<polygon class="st17" points="1468.9,226.9 1451.7,234.7 1468.9,242.8 				"/>
				<polygon class="st7" points="1709.9,216.3 1709.9,225 1709.9,228.5 1709.9,241.6 1709.9,253.8 1749,253.8 1749,241.6 
					1749,228.5 1749,225 1749,216.3 				"/>
				<g>
					<rect x="1709.9" y="216.3" class="st10" width="5.2" height="37.4"/>
				</g>
			</g>
			<g>
				<g>
					<path class="st17" d="M1084.8,58h-8.5c0-9.5-7.7-17.2-17.3-17.2v-8.5C1073.2,32.2,1084.8,43.8,1084.8,58z"/>
				</g>
				<g>
					<path class="st17" d="M1107.1,58h-8.5c0-21.8-17.8-39.6-39.6-39.6V9.9C1085.5,9.9,1107.1,31.5,1107.1,58z"/>
				</g>
				<g>
					<path class="st17" d="M1135.3,58h-8.5c0-37.4-30.4-67.8-67.8-67.8v-8.5C1101.1-18.3,1135.3,15.9,1135.3,58z"/>
				</g>
			</g>
			<path class="st13" d="M1572.6,225v5c0,2.6-1,4.9-2.7,6.6l0,0c-1.7,1.7-4,2.7-6.6,2.7s-4.9-1-6.6-2.7l0,0c-1.7-1.7-2.7-4-2.7-6.6
				v-5h-5c-2.6,0-4.9-1-6.6-2.7l0,0c-1.7-1.7-2.7-4-2.7-6.6s1-4.9,2.7-6.6l0,0c1.7-1.7,4-2.7,6.6-2.7h5v-5c0-2.6,1-4.9,2.7-6.6l0,0
				c1.7-1.7,4-2.7,6.6-2.7s4.9,1,6.6,2.7l0,0c1.7,1.7,2.7,4,2.7,6.6v5h5c2.6,0,4.9,1,6.6,2.7l0,0c1.7,1.7,2.7,4,2.7,6.6
				s-1,4.9-2.7,6.6l0,0c-1.7,1.7-4,2.7-6.6,2.7H1572.6L1572.6,225z M1567.6,230v-10h10c1.2,0,2.3-0.5,3.1-1.3l0,0
				c0.8-0.8,1.3-1.9,1.3-3.1c0-1.2-0.5-2.3-1.3-3.1l0,0c-0.8-0.8-1.9-1.3-3.1-1.3h-10v-10c0-1.2-0.5-2.3-1.3-3.1l0,0
				c-0.8-0.8-1.9-1.3-3.1-1.3s-2.3,0.5-3.1,1.3l0,0c-0.8,0.8-1.3,1.9-1.3,3.1v10h-10c-1.2,0-2.3,0.5-3.1,1.3l0,0
				c-0.8,0.8-1.3,1.9-1.3,3.1c0,1.2,0.5,2.3,1.3,3.1l0,0c0.8,0.8,1.9,1.3,3.1,1.3h10v10c0,1.2,0.5,2.3,1.3,3.1l0,0
				c0.8,0.8,1.9,1.3,3.1,1.3s2.3-0.5,3.1-1.3l0,0C1567.1,232.2,1567.6,231.2,1567.6,230z"/>
			<g>
				
					<linearGradient id="SVGID_11_" gradientUnits="userSpaceOnUse" x1="810" y1="209.2" x2="1164.3152" y2="209.2" gradientTransform="matrix(1 0 0 1 0 26)">
					<stop  offset="0" style="stop-color:#573876"/>
					<stop  offset="1" style="stop-color:#F063BD"/>
				</linearGradient>
				<polygon class="st23" points="807.4,309.1 1182.5,172.3 1182.5,161.3 807.4,298.1 				"/>
				
					<linearGradient id="SVGID_12_" gradientUnits="userSpaceOnUse" x1="1236" y1="34.2" x2="1657.2245" y2="34.2" gradientTransform="matrix(1 0 0 1 0 26)">
					<stop  offset="0" style="stop-color:#F063BD"/>
					<stop  offset="1" style="stop-color:#573876"/>
				</linearGradient>
				<polygon class="st24" points="1288.4,134.1 1663.5,-2.7 1663.5,-13.7 1288.4,123.1 				"/>
				
					<linearGradient id="SVGID_13_" gradientUnits="userSpaceOnUse" x1="1236" y1="35.7" x2="1657.2245" y2="35.7" gradientTransform="matrix(1 0 0 1 0 26)">
					<stop  offset="0" style="stop-color:#F063BD"/>
					<stop  offset="1" style="stop-color:#573876"/>
				</linearGradient>
				<polygon class="st25" points="1238.4,142.1 1649,-7.7 1649,-18.7 1238.4,131.1 				"/>
				
					<linearGradient id="SVGID_14_" gradientUnits="userSpaceOnUse" x1="810" y1="225.7" x2="1164.3152" y2="225.7" gradientTransform="matrix(1 0 0 1 0 26)">
					<stop  offset="0" style="stop-color:#573876"/>
					<stop  offset="1" style="stop-color:#F063BD"/>
				</linearGradient>
				<polygon class="st26" points="799.4,322.1 1155.5,192.3 1155.5,181.3 799.4,311.1 				"/>
				
					<linearGradient id="SVGID_15_" gradientUnits="userSpaceOnUse" x1="810" y1="233.7" x2="1164.3152" y2="233.7" gradientTransform="matrix(1 0 0 1 0 26)">
					<stop  offset="0" style="stop-color:#573876"/>
					<stop  offset="1" style="stop-color:#F063BD"/>
				</linearGradient>
				<polygon class="st27" points="807.4,330.1 1163.5,200.3 1163.5,189.3 807.4,319.1 				"/>
				
					<linearGradient id="SVGID_16_" gradientUnits="userSpaceOnUse" x1="810" y1="245.7" x2="1164.3152" y2="245.7" gradientTransform="matrix(1 0 0 1 0 26)">
					<stop  offset="0" style="stop-color:#573876"/>
					<stop  offset="1" style="stop-color:#F063BD"/>
				</linearGradient>
				<polygon class="st28" points="802.4,342.1 1158.5,212.3 1158.5,201.3 802.4,331.1 				"/>
			</g>
			
				<linearGradient id="SVGID_17_" gradientUnits="userSpaceOnUse" x1="547" y1="378.5" x2="945" y2="378.5" gradientTransform="matrix(1 0 0 1 0 26)">
				<stop  offset="0" style="stop-color:#746092"/>
				<stop  offset="1" style="stop-color:#F063BD"/>
			</linearGradient>
			<rect x="547" y="284" class="st29" width="398" height="241"/>
			<g>
				<polygon class="st6" points="1170.3,153.7 1182.4,150 1182.4,163 1170.3,166.7 				"/>
				<polygon class="st1" points="1176.2,151.9 1182.4,150 1182.4,163 1176.2,164.9 				"/>
				<path class="st6" d="M1277.9,50.6v52.1c0,2.7-2.2,5-5,5h-47.1c-2.7,0-5-2.2-5-5V50.6H1277.9z"/>
				<path class="st1" d="M1277.9,50.6v52.1c0,2.7-2.2,5-5,5h-23.8V50.6H1277.9z"/>
				<path class="st6" d="M1152.8-24.8h47.1c2.7,0,5,2.2,5,5v125.7h-57.1V-19.8C1147.8-22.5,1150.1-24.8,1152.8-24.8z"/>
				<path class="st1" d="M1176.2-24.8h23.8c2.7,0,5,2.2,5,5v125.7h-28.7V-24.8H1176.2z"/>
				<rect x="1148.4" y="105.8" class="st7" width="56" height="4"/>
				<path class="st7" d="M1168.8,154.3h6.2h2.7h6.2c1.1-16.2,5.9-32.5,20.5-44.5h-26.6h-2.7h-26.6
					C1162.9,121.8,1167.7,138.1,1168.8,154.3z"/>
				<path class="st7" d="M1176.2,154.3h1.6h6.2c1.1-16.2,5.9-32.5,20.5-44.5h-26.6h-1.6L1176.2,154.3L1176.2,154.3z"/>
				<path class="st16" d="M1176.4,67.4c6.1,0,11,4.9,11,11s-4.9,11-11,11s-11-4.9-11-11S1170.3,67.4,1176.4,67.4L1176.4,67.4z
					 M1176.4,70.3c-4.5,0-8.1,3.6-8.1,8.1s3.6,8.1,8.1,8.1s8.1-3.6,8.1-8.1C1184.5,74,1180.8,70.3,1176.4,70.3z"/>
				<path class="st15" d="M1176.4,67.4c6.1,0,11,4.9,11,11s-4.9,11-11,11c-0.1,0-0.1,0-0.2,0v-2.9c0.1,0,0.1,0,0.2,0
					c4.5,0,8.1-3.6,8.1-8.1s-3.6-8.1-8.1-8.1c-0.1,0-0.1,0-0.2,0v-2.9C1176.2,67.4,1176.3,67.4,1176.4,67.4z"/>
			</g>
			<path class="st6" d="M1041.6,188.6c-0.6-0.2-7.5,4.4-8.7,4.8c-3,1.2-6.4,2.4-9.6,2.5c-5.3,0.2-11.4-2.5-16.7-3.5
				c-1.1-0.2-2.3-0.5-3-1.5c-0.6-1-0.3-2.3,0.3-3.2c0.6-1,1.5-1.7,2.1-2.7c1.4-2,1.6-4.5,1.3-6.9s-1.3-4.6-2.2-6.8
				c-2.4-5.7-4.8-10.7-5.4-16.8c-0.7-6.4-1.3-12.7-1.7-19.1c-0.7-10.4-0.7-28,13.3-29.4c5.7-0.6,11.3,2.1,15.5,6
				c4.2,3.9,7.1,8.9,9.9,13.9s5.6,10.1,9.5,14.2c-2.7,0.9-5.2,2.5-7.1,4.6c2.5,2.6,3.4,6.6,2.4,10.1c-1.9,6.3-7.1,5.9-11.7,8.8
				c-4.8,3.1-5.1,10.6-2,15.4S1036.3,186.6,1041.6,188.6z"/>
			<path class="st7" d="M1038.8,103.3c0.6-5.2-1.5-10.7-5.4-14.2c-1.8,6-8.1,9.4-14,11.3c-11.2,3.6-24.5,5.4-29.8,17.3
				c-3.1,6.9-3,15-0.9,22.3c1.6,5.9,5.7,18.9,11.9,21.3c1.8,0.7,3.8,0.6,5.7,0.5c2.3-0.1,4.7-0.3,6.9-1.1c6.7-2.4,8.5-8.2,3.1-13.1
				c-2.2-2-4.7-3.9-5.5-6.8c-0.8-3,1.6-8.1,5.2-6.8c2.7,1,4.2,7.2,8.4,3c-2.2-3.6-3.2-4.9-2.3-8.9c0.9-3.8,2.9-8,5.7-10.8
				C1032.5,112.8,1037.9,111.2,1038.8,103.3z"/>
			<path class="st8" d="M1046.7,185c6.6-0.6,13.7-1.7,19.3,1.7c5.4,3.3,8,9.9,8.1,16.2s-1.7,12.5-3.4,18.6
				c-6.8,25.5-9.6,52.1-8.1,78.5c-15.7,0.1-31.4-1.3-46.9-4.4c-3.5-0.7-7.2-1.5-10.1-3.6c-4.3-3.1-6.4-8.4-8.3-13.4
				c-9.3-25.2-18.5-51.3-17.3-78.1c0.2-5.3,1-10.9,4.2-15.1c6.7-8.7,18.8-3,27.4-1.6C1023.3,185.7,1035,186.1,1046.7,185z"/>
			<path class="st6" d="M1055.1,86.3c-4.6-4.9-7-10.7-11-15.9c-4.8-6.2-9-12.8-12.5-19.8c-0.8-1.6-1.4-3.8-0.1-4.9
				c1.6-1.3,3.9,0.4,5,2.2c2.2,3.7,3.4,8.6,7.5,9.9c4.5,1.5,9.8-2.7,14-0.5c1.8,0.9,3,2.9,3.4,4.9s0.2,4.1,0.1,6.1
				c-0.3,3.7-3,12.9,0.3,15.5"/>
			<path class="st8" d="M1065.7,225.2c4.7-1.9,6.8-7.3,8.3-12.1c5.8-19.2,9.2-39,10.1-59c0.9-19.6-0.7-39.8-8.3-57.9
				c-2.6-6.3-6.1-12.4-11.2-16.9c-2.8-2.5-6.9-4.4-10.3-2.8c-2.8,1.3-4.1,4.6-4,7.7s1.3,6,2.4,8.8c7.4,19.1,10.4,39.7,9.1,60.1
				c-0.7,10.3-2.4,20.6-5.3,30.6c-2.2,7.6-7.7,15.9-7.9,23.9C1048.5,215.8,1055.5,229.4,1065.7,225.2z"/>
			<g>
				<path class="st9" d="M1396.3,339.1V284H882v55.1H1396.3z M909.5,304.8c3.7,0,6.8,3,6.8,6.8c0,3.7-3,6.8-6.8,6.8
					c-3.7,0-6.8-3-6.8-6.8C902.8,307.8,905.8,304.8,909.5,304.8z"/>
				<g>
					<rect x="936" y="318.3" class="st7" width="3.2" height="20.3"/>
					<rect x="949.5" y="325" class="st7" width="3.2" height="13.5"/>
					<rect x="963" y="325" class="st7" width="3.2" height="13.5"/>
					<rect x="976.5" y="325" class="st7" width="3.2" height="13.5"/>
					<polygon class="st7" points="993.2,325 993.2,318.3 990,318.3 990,325 990,338.5 993.2,338.5 					"/>
					<rect x="1003.5" y="325" class="st7" width="3.2" height="13.5"/>
					<rect x="1017" y="325" class="st7" width="3.2" height="13.5"/>
					<rect x="1030.6" y="325" class="st7" width="3.2" height="13.5"/>
					<polygon class="st7" points="1047.3,325 1047.3,318.3 1044.1,318.3 1044.1,325 1044.1,338.5 1047.3,338.5 					"/>
					<rect x="1057.6" y="325" class="st7" width="3.2" height="13.5"/>
					<rect x="1071.1" y="325" class="st7" width="3.2" height="13.5"/>
					<rect x="1084.6" y="325" class="st7" width="3.2" height="13.5"/>
					<polygon class="st7" points="1101.3,325 1101.3,318.3 1098.1,318.3 1098.1,325 1098.1,338.5 1101.3,338.5 					"/>
					<rect x="1111.6" y="325" class="st7" width="3.2" height="13.5"/>
					<rect x="1125.1" y="325" class="st7" width="3.2" height="13.5"/>
					<rect x="1138.6" y="325" class="st7" width="3.2" height="13.5"/>
					<polygon class="st7" points="1155.4,325 1155.4,318.3 1152.2,318.3 1152.2,325 1152.2,338.5 1155.4,338.5 					"/>
					<rect x="1165.7" y="325" class="st7" width="3.2" height="13.5"/>
					<rect x="1179.2" y="325" class="st7" width="3.2" height="13.5"/>
					<rect x="1192.7" y="325" class="st7" width="3.2" height="13.5"/>
					<polygon class="st7" points="1209.4,325 1209.4,318.3 1206.2,318.3 1206.2,325 1206.2,338.5 1209.4,338.5 					"/>
					<rect x="1219.7" y="325" class="st7" width="3.2" height="13.5"/>
					<rect x="1233.2" y="325" class="st7" width="3.2" height="13.5"/>
					<rect x="1246.7" y="325" class="st7" width="3.2" height="13.5"/>
					<polygon class="st7" points="1263.5,325 1263.5,318.3 1260.2,318.3 1260.2,325 1260.2,338.5 1263.5,338.5 					"/>
					<rect x="1273.8" y="325" class="st7" width="3.2" height="13.5"/>
					<rect x="1287.3" y="325" class="st7" width="3.2" height="13.5"/>
					<rect x="1300.8" y="325" class="st7" width="3.2" height="13.5"/>
					<polygon class="st7" points="1317.5,325 1317.5,318.3 1314.3,318.3 1314.3,325 1314.3,338.5 1317.5,338.5 					"/>
					<rect x="1327.8" y="325" class="st7" width="3.2" height="13.5"/>
					<rect x="1341.3" y="325" class="st7" width="3.2" height="13.5"/>
					<rect x="1354.8" y="325" class="st7" width="3.2" height="13.5"/>
					<polygon class="st7" points="1371.6,325 1371.6,318.3 1368.3,318.3 1368.3,325 1368.3,338.5 1371.6,338.5 					"/>
				</g>
			</g>
			<g>
				<path class="st11" d="M1598,478.9V534h514.3v-55.1H1598z M2084.8,513.2c-3.7,0-6.8-3-6.8-6.8c0-3.7,3-6.8,6.8-6.8
					c3.7,0,6.8,3,6.8,6.8S2088.6,513.2,2084.8,513.2z"/>
				<g>
					<rect x="2055.1" y="479.5" class="st7" width="3.2" height="20.3"/>
					<rect x="2041.6" y="479.5" class="st7" width="3.2" height="13.5"/>
					<rect x="2028.1" y="479.5" class="st7" width="3.2" height="13.5"/>
					<rect x="2014.6" y="479.5" class="st7" width="3.2" height="13.5"/>
					<polygon class="st7" points="2001.1,493 2001.1,499.7 2004.3,499.7 2004.3,493 2004.3,479.5 2001.1,479.5 					"/>
					<rect x="1987.6" y="479.5" class="st7" width="3.2" height="13.5"/>
					<rect x="1974.1" y="479.5" class="st7" width="3.2" height="13.5"/>
					<rect x="1960.6" y="479.5" class="st7" width="3.2" height="13.5"/>
					<polygon class="st7" points="1947,493 1947,499.7 1950.3,499.7 1950.3,493 1950.3,479.5 1947,479.5 					"/>
					<rect x="1933.5" y="479.5" class="st7" width="3.2" height="13.5"/>
					<rect x="1920" y="479.5" class="st7" width="3.2" height="13.5"/>
					<rect x="1906.5" y="479.5" class="st7" width="3.2" height="13.5"/>
					<polygon class="st7" points="1893,493 1893,499.7 1896.2,499.7 1896.2,493 1896.2,479.5 1893,479.5 					"/>
					<rect x="1879.5" y="479.5" class="st7" width="3.2" height="13.5"/>
					<rect x="1866" y="479.5" class="st7" width="3.2" height="13.5"/>
					<rect x="1852.5" y="479.5" class="st7" width="3.2" height="13.5"/>
					<polygon class="st7" points="1839,493 1839,499.7 1842.2,499.7 1842.2,493 1842.2,479.5 1839,479.5 					"/>
					<rect x="1825.4" y="479.5" class="st7" width="3.2" height="13.5"/>
					<rect x="1811.9" y="479.5" class="st7" width="3.2" height="13.5"/>
					<rect x="1798.4" y="479.5" class="st7" width="3.2" height="13.5"/>
					<polygon class="st7" points="1784.9,493 1784.9,499.7 1788.1,499.7 1788.1,493 1788.1,479.5 1784.9,479.5 					"/>
					<rect x="1771.4" y="479.5" class="st7" width="3.2" height="13.5"/>
					<rect x="1757.9" y="479.5" class="st7" width="3.2" height="13.5"/>
					<rect x="1744.4" y="479.5" class="st7" width="3.2" height="13.5"/>
					<polygon class="st7" points="1730.9,493 1730.9,499.7 1734.1,499.7 1734.1,493 1734.1,479.5 1730.9,479.5 					"/>
					<rect x="1717.4" y="479.5" class="st7" width="3.2" height="13.5"/>
					<rect x="1703.8" y="479.5" class="st7" width="3.2" height="13.5"/>
					<rect x="1690.3" y="479.5" class="st7" width="3.2" height="13.5"/>
					<polygon class="st7" points="1676.8,493 1676.8,499.7 1680,499.7 1680,493 1680,479.5 1676.8,479.5 					"/>
					<rect x="1663.3" y="479.5" class="st7" width="3.2" height="13.5"/>
					<rect x="1649.8" y="479.5" class="st7" width="3.2" height="13.5"/>
					<rect x="1636.3" y="479.5" class="st7" width="3.2" height="13.5"/>
					<polygon class="st7" points="1622.8,493 1622.8,499.7 1626,499.7 1626,493 1626,479.5 1622.8,479.5 					"/>
				</g>
			</g>
			<g>
				<g class="st21">
					<path class="st7" d="M240.9,198.2l-49.1-31.7v0.1l0,0l7.3,58l14.4-9.1l9.8,15.7l13-8.2l-9.8-15.7L240.9,198.2z"/>
				</g>
				<g>
					<path class="st10" d="M243,192.6l-49.1-31.7v0.1l0,0l7.3,58l14.4-9.1l9.8,15.7l13-8.2l-9.8-15.7L243,192.6z"/>
				</g>
			</g>
			<g>
				<g>
					<g>
						<path class="st1" d="M1395.3,469.9h-135.5c-6.8,0-12.3-5.5-12.3-12.3v4.1c0,6.8,5.5,12.3,12.3,12.3h135.5
							c6.8,0,12.3-5.5,12.3-12.3v-4.1C1407.6,464.3,1402,469.9,1395.3,469.9z"/>
					</g>
					<g>
						<path class="st7" d="M1395.3,248.1h-135.5c-6.8,0-12.3,5.5-12.3,12.3v4.1V285v4.1v143.7v4.1v20.5c0,6.8,5.5,12.3,12.3,12.3
							h135.5c6.8,0,12.3-5.5,12.3-12.3V437v-4.1V289.2v-4.1v-20.5v-4.1C1407.6,253.7,1402,248.1,1395.3,248.1z M1327.5,457.6
							c-3.4,0-6.2-2.8-6.2-6.2c0-3.4,2.8-6.2,6.2-6.2s6.2,2.8,6.2,6.2C1333.7,454.8,1330.9,457.6,1327.5,457.6z"/>
					</g>
					<g>
						<path class="st16" d="M1254,362.7l19.4,19.5c1.3-1.3,3.1-2.1,5.1-2.1c1.5,0,2.9,0.5,4.1,1.2l16.6-24.8
							c-1.9-1.3-3.2-3.5-3.2-6.1c0-4,3.3-7.3,7.3-7.3s7.3,3.3,7.3,7.3c0,1.2-0.3,2.3-0.8,3.3l11.3,5.7c1.2-2.4,3.7-4,6.5-4
							c1.4,0,2.7,0.4,3.8,1.1l16.8-27.2c-2.1-1.3-3.4-3.6-3.4-6.2c0-4,3.3-7.3,7.3-7.3c3.1,0,5.8,2,6.8,4.8l12.3-4.6
							c-0.3-0.8-0.5-1.6-0.5-2.5c0-4,3.3-7.3,7.3-7.3s7.3,3.3,7.3,7.3c0,2.1-0.9,3.9-2.2,5.3l18.1,18.8V272h-147v90.7H1254z"/>
					</g>
					<g>
						<circle class="st16" cx="1327.5" cy="451.4" r="6.2"/>
					</g>
					<g>
						
							<linearGradient id="SVGID_18_" gradientUnits="userSpaceOnUse" x1="1327.2996" y1="413.8134" x2="1327.2996" y2="297.5252" gradientTransform="matrix(1 0 0 1 0 26)">
							<stop  offset="0" style="stop-color:#F063BD"/>
							<stop  offset="1" style="stop-color:#746092"/>
						</linearGradient>
						<path class="st30" d="M1377.9,320.7c-3.1,0-5.8-2-6.8-4.8l-12.3,4.6c0.3,0.8,0.5,1.6,0.5,2.5c0,4-3.3,7.3-7.3,7.3
							c-1.4,0-2.7-0.4-3.8-1.1l-16.8,27.2c2.1,1.3,3.4,3.6,3.4,6.2c0,4-3.3,7.3-7.3,7.3s-7.3-3.3-7.3-7.3c0-1.2,0.3-2.3,0.8-3.3
							l-11.3-5.7c-1.2,2.4-3.6,4-6.5,4c-1.5,0-2.9-0.5-4.1-1.2l-16.6,24.8c1.9,1.3,3.2,3.5,3.2,6.1c0,4-3.3,7.3-7.3,7.3
							s-7.3-3.3-7.3-7.3c0-2,0.8-3.8,2.1-5.2l-19.4-19.5v70.3h147v-95.5l-18.1-18.8C1381.6,319.9,1379.8,320.7,1377.9,320.7z"/>
					</g>
				</g>
				<g>
					<circle class="st31" cx="1327.5" cy="451.4" r="6.2"/>
				</g>
			</g>
			<g>
				<polygon class="st9" points="1434.1,253.8 1393.3,272.3 1434.1,291.4 1690.6,291.4 1690.6,253.8 				"/>
				<g>
					<path class="st17" d="M1434.2,253.8c1.6,0.7,2.8,3.2,2.8,6.2s-1.2,5.5-2.9,6.2l0,0l0,0l0,0l0,0c1.6,0.7,2.8,3.3,2.8,6.4
						s-1.2,5.7-2.9,6.4v0.1h217.3v-12.8l0,0v-12.4h-217.1L1434.2,253.8L1434.2,253.8z"/>
					<path class="st17" d="M1434.4,279.2c1.6,0.8,2.7,3.2,2.7,6.1c0,3-1.2,5.5-2.8,6.1h217.3v-12.3L1434.4,279.2L1434.4,279.2z"/>
				</g>
				<polygon class="st17" points="1410.5,264.5 1393.3,272.3 1410.5,280.3 				"/>
				<polygon class="st7" points="1651.5,253.8 1651.5,262 1651.5,266.1 1651.5,279.1 1651.5,291.4 1690.6,291.4 1690.6,279.1 
					1690.6,266.1 1690.6,262 1690.6,253.8 				"/>
				<g>
					<rect x="1651.5" y="253.9" class="st10" width="5.2" height="37.4"/>
				</g>
			</g>
			
				<linearGradient id="SVGID_19_" gradientUnits="userSpaceOnUse" x1="471" y1="357.45" x2="736" y2="357.45" gradientTransform="matrix(1 0 0 1 0 26)">
				<stop  offset="0" style="stop-color:#E7BD42"/>
				<stop  offset="1" style="stop-color:#F6F01D"/>
			</linearGradient>
			<polygon class="st32" points="736,434.2 471,532 471,332 735.4,234.9 			"/>
			<g>
				<path class="st4" d="M535.5,395.3h-61.6c-5.7,0-10.3-4.7-10.3-10.3c0-5.7,4.7-10.3,10.3-10.3h4.1c5.7,0,10.3-4.7,10.3-10.3l0,0
					c0-5.7-4.7-10.3-10.3-10.3h-63.2c-5.7,0-10.3,4.7-10.3,10.3l0,0c0,5.7,4.7,10.3,10.3,10.3h10.7c5.7,0,10.3,4.7,10.3,10.3
					c0,5.7-4.7,10.3-10.3,10.3h-21.6c-5.7,0-10.3,4.7-10.3,10.3l0,0c0,5.7,4.7,10.3,10.3,10.3h131.6c5.7,0,10.3-4.7,10.3-10.3l0,0
					C545.8,400,541.2,395.3,535.5,395.3z"/>
				<path class="st4" d="M664.5,362.3H532.9c-5.7,0-10.3,4.7-10.3,10.3l0,0c0,5.7,4.7,10.3,10.3,10.3h131.6
					c5.7,0,10.3-4.7,10.3-10.3l0,0C674.8,367,670.2,362.3,664.5,362.3z"/>
				<path class="st4" d="M689.5,325.3h-93.6c-5.7,0-10.3,4.7-10.3,10.3l0,0c0,5.7,4.7,10.3,10.3,10.3h93.6c5.7,0,10.3-4.7,10.3-10.3
					l0,0C699.8,330,695.2,325.3,689.5,325.3z"/>
			</g>
			<g>
				<g>
					<path class="st8" d="M768.6,277.1c1.3-3.8,2-8,1.7-12.3c-0.8-16.5-14.3-29.9-30.8-30.6c-18.6-0.9-33.9,13.9-33.9,32.3
						c0,3.8,0.6,7.4,1.8,10.7c3.8,10.8,1.3,22.9-6,31.7c-6.7,8-10.8,18.3-11,29.5c-0.5,26.2,20.7,48.1,46.9,48.5
						c26.6,0.4,48.3-21.1,48.3-47.6c0-11.6-4.2-22.3-11.1-30.5C767.1,300,764.8,288,768.6,277.1z"/>
				</g>
				<g>
					<g>
						<path class="st1" d="M738,438c-0.9,0-1.6-0.7-1.6-1.6V235.6c0-0.9,0.7-1.6,1.6-1.6c0.9,0,1.6,0.7,1.6,1.6v200.8
							C739.6,437.3,738.9,438,738,438z"/>
					</g>
				</g>
				<path class="st1" d="M738.1,359.1c-0.6,0-1.2-0.4-1.4-1c-0.3-0.8,0.1-1.6,0.9-1.9L785,339c0.8-0.3,1.6,0.1,1.9,0.9
					c0.3,0.8-0.1,1.6-0.9,1.9L738.6,359C738.5,359,738.3,359.1,738.1,359.1z"/>
				<path class="st1" d="M738.1,309c-0.6,0-1.2-0.4-1.4-1c-0.3-0.8,0.1-1.6,0.9-1.9l30.1-10.7c0.8-0.3,1.6,0.1,1.9,0.9
					c0.3,0.8-0.1,1.6-0.9,1.9L738.6,309C738.4,309,738.3,309,738.1,309z"/>
				<path class="st1" d="M738.1,264.4c-0.6,0-1.2-0.4-1.4-1c-0.3-0.8,0.1-1.6,0.9-1.9l29.1-10.2c0.8-0.3,1.6,0.1,1.9,0.9
					c0.3,0.8-0.1,1.6-0.9,1.9l-29.1,10.2C738.4,264.3,738.3,264.4,738.1,264.4z"/>
				<path class="st1" d="M737.4,376.1c-0.2,0-0.3,0-0.5-0.1l-42.5-15.5c-0.8-0.3-1.1-1.1-0.9-1.9c0.3-0.8,1.1-1.1,1.9-0.9l42.5,15.5
					c0.8,0.3,1.1,1.1,0.9,1.9C738.5,375.7,738,376.1,737.4,376.1z"/>
				<path class="st1" d="M737.4,326c-0.2,0-0.3,0-0.5-0.1l-37.6-13.6c-0.8-0.3-1.1-1.1-0.9-1.9c0.3-0.8,1.1-1.1,1.9-0.9l37.6,13.6
					c0.8,0.3,1.1,1.1,0.9,1.9C738.5,325.7,738,326,737.4,326z"/>
				
					<linearGradient id="SVGID_20_" gradientUnits="userSpaceOnUse" x1="547" y1="219.7" x2="738.8997" y2="219.7" gradientTransform="matrix(1 0 0 1 0 26)">
					<stop  offset="0" style="stop-color:#E7BD42"/>
					<stop  offset="1" style="stop-color:#573876"/>
				</linearGradient>
				<path class="st33" d="M737.4,281.4c-0.2,0-0.3,0-0.5-0.1L547,213v-3l190.9,68.5c0.8,0.3,1.2,1.1,0.9,1.9
					C738.6,281,738,281.4,737.4,281.4z"/>
			</g>
			<g>
				<g>
					<path class="st13" d="M281.7,129.2c-6.2,2.8-13.8,1.6-19-3.5c-5-5-6.2-12.3-3.7-18.4"/>
				</g>
				<g>
					
						<rect x="325.5" y="81.3" transform="matrix(0.7071 -0.7071 0.7071 0.7071 11.4108 269.3853)" class="st16" width="10.7" height="79.2"/>
				</g>
				<g>
					<path class="st17" d="M302.1,103.7l7.8-7.8c4.6-4.6,4.6-12,0-16.5l0,0c-4.6-4.6-12-4.6-16.5,0l-7.8,7.8
						c-11.8-5.6-26-4.3-36.7,4c-1.8,1.4-2,4.2-0.3,5.9l43.7,43.7c1.7,1.7,4.4,1.5,5.9-0.3C306.4,129.8,307.7,115.5,302.1,103.7z"/>
				</g>
				<g>
					
						<rect x="280.3" y="172.6" transform="matrix(0.7071 -0.7071 0.7071 0.7071 -32.1439 278.314)" class="st16" width="79.2" height="10.7"/>
				</g>
				<g>
					
						<ellipse transform="matrix(0.9735 -0.2285 0.2285 0.9735 -23.4776 84.6223)" class="st17" cx="353.7" cy="143.7" rx="11.3" ry="11.3"/>
				</g>
				<circle class="st7" cx="353.7" cy="143.7" r="4"/>
				<g>
					<path class="st17" d="M314,206.7h-38.7c-8.9,0-16,7.2-16,16H330C330.1,213.9,322.9,206.7,314,206.7z"/>
				</g>
				<g>
					<path class="st16" d="M308,206.7h-25.2c0-7,5.6-12.6,12.6-12.6C302.3,194.1,308,199.8,308,206.7z"/>
				</g>
			</g>
			<path class="st13" d="M959.1,98.4v3.1c0,1.6-0.6,3-1.7,4.1l0,0c-1,1-2.5,1.7-4.1,1.7s-3-0.6-4.1-1.7l0,0c-1-1-1.7-2.5-1.7-4.1
				v-3.1h-3.1c-1.6,0-3-0.6-4.1-1.7l0,0c-1-1-1.7-2.5-1.7-4.1s0.6-3,1.7-4.1l0,0c1-1,2.5-1.7,4.1-1.7h3.1v-3.1c0-1.6,0.6-3,1.7-4.1
				l0,0c1-1,2.5-1.7,4.1-1.7s3,0.6,4.1,1.7l0,0c1,1,1.7,2.5,1.7,4.1v3.1h3.1c1.6,0,3,0.6,4.1,1.7l0,0c1,1,1.7,2.5,1.7,4.1
				s-0.6,3-1.7,4.1l0,0c-1,1-2.5,1.7-4.1,1.7H959.1L959.1,98.4z M956,101.5v-6.2h6.2c0.7,0,1.4-0.3,1.9-0.8l0,0
				c0.5-0.5,0.8-1.2,0.8-1.9c0-0.7-0.3-1.4-0.8-1.9l0,0c-0.5-0.5-1.2-0.8-1.9-0.8H956v-6.2c0-0.7-0.3-1.4-0.8-1.9l0,0
				c-0.5-0.5-1.1-0.8-1.9-0.8c-0.7,0-1.4,0.3-1.9,0.8l0,0c-0.5,0.5-0.8,1.1-0.8,1.9V90h-6.2c-0.7,0-1.4,0.3-1.9,0.8l0,0
				c-0.5,0.5-0.8,1.1-0.8,1.9c0,0.7,0.3,1.4,0.8,1.9l0,0c0.5,0.5,1.1,0.8,1.9,0.8h6.2v6.2c0,0.7,0.3,1.4,0.8,1.9l0,0
				c0.5,0.5,1.1,0.8,1.9,0.8c0.7,0,1.4-0.3,1.9-0.8l0,0C955.7,102.9,956,102.2,956,101.5z"/>
			<g>
				<g>
					<path class="st13" d="M908.6,358.7h-24.5h-32.6h-32.6h-32.6h-32.6h-24.4c-4.5,0-7.8,3.3-7.8,7.8v114h32.2h32.6h32.6h32.6h32.6
						h32.5v-114C916.6,362,913.1,358.7,908.6,358.7z"/>
				</g>
				<g>
					<g>
						<polygon class="st9" points="892,384 857,431 823,431 788,411 753.8,427.2 721.3,439.5 721.3,488.9 753.6,488.9 786.2,488.9 
							818.7,488.9 851.5,488.9 884.1,488.9 916.6,488.9 916.6,395.1 						"/>
					</g>
					<g>
						<g>
							<path class="st7" d="M757.7,427.8c0,2.3-1.8,4.1-4.1,4.1s-4.1-1.8-4.1-4.1s1.8-4.1,4.1-4.1
								C755.8,423.7,757.7,425.5,757.7,427.8z"/>
						</g>
					</g>
					<g>
						<g>
							<path class="st7" d="M792.3,411.4c0,2.3-1.8,4.1-4.1,4.1s-4.1-1.8-4.1-4.1s1.8-4.1,4.1-4.1S792.3,409.1,792.3,411.4z"/>
						</g>
					</g>
					<g>
						<g>
							<path class="st7" d="M896.2,384.1c0,2.3-1.8,4.1-4.1,4.1s-4.1-1.8-4.1-4.1c0-2.3,1.8-4.1,4.1-4.1
								C894.4,380.1,896.2,381.9,896.2,384.1z"/>
						</g>
					</g>
					<g>
						<g>
							<path class="st7" d="M861.6,431.8c0,2.3-1.8,4.1-4.1,4.1s-4.1-1.8-4.1-4.1c0-2.3,1.8-4.1,4.1-4.1
								C859.8,427.7,861.6,429.5,861.6,431.8z"/>
						</g>
					</g>
					<g>
						<g>
							<path class="st7" d="M826.9,431.8c0,2.3-1.8,4.1-4.1,4.1s-4.1-1.8-4.1-4.1c0-2.3,1.8-4.1,4.1-4.1
								C825.1,427.7,826.9,429.5,826.9,431.8z"/>
						</g>
					</g>
				</g>
				<g>
					<g>
						<path class="st16" d="M696.4,480.7c0,9,7.3,16.3,16.3,16.3l0,0l0,0h211.9c9,0,16.3-7.3,16.3-16.3H696.4z"/>
					</g>
				</g>
				<path class="st15" d="M835.2,480.7H827h-16.4h-8.2h-8.2c0,4.5,3.7,8.2,8.2,8.2h32.7c4.5,0,8.2-3.7,8.2-8.2H835.2z"/>
				<g>
					<g>
						<path class="st1" d="M908.6,366.5L908.6,366.5L908.6,366.5v106.1H729.1V366.5H908.6L908.6,366.5z M908.6,358.3H729.1
							c-4.5,0-8.2,3.7-8.2,8.2v114.2h195.8V366.5C916.8,362,913.1,358.3,908.6,358.3L908.6,358.3z"/>
					</g>
				</g>
			</g>
			<g>
				<path class="st10" d="M829.9,247.7c0-0.4-0.1-0.8-0.1-1.2l5.8-4.9l-6.5-11.3l-6.5,2.4c-1-0.8-2.2-1.5-3.4-2.1l-1.3-7.5h-13.1
					l-1.2,6.8c-1.3,0.5-2.5,1.1-3.6,1.9l-7-2.6l-6.5,11.3l5.3,4.5c-0.1,0.9-0.3,1.8-0.3,2.7c0,0.4,0.1,0.8,0.1,1.2l-5.8,4.9
					l6.5,11.3l6.6-2.4c1,0.8,2.2,1.5,3.4,2.1l1.3,7.5h13.1l1.2-6.8c1.3-0.5,2.5-1.1,3.6-1.9l7,2.6l6.5-11.3l-5.3-4.5
					C829.8,249.5,829.9,248.6,829.9,247.7z M810.7,256c-4.6,0-8.4-3.7-8.4-8.4s3.7-8.4,8.4-8.4c4.6,0,8.4,3.7,8.4,8.4
					S815.3,256,810.7,256z"/>
			</g>
			<g>
				<path class="st10" d="M781.4,236.2c0.1-0.2,0.2-0.4,0.3-0.6l4-0.5l0.3-7l-3.6-0.8c-0.2-0.7-0.5-1.3-0.9-1.9l1.5-3.7l-5.9-3.8
					l-2.5,2.7c-0.7-0.1-1.4-0.2-2.2-0.2l-2.4-3.2l-6.2,3.2l1.1,3.5c-0.3,0.4-0.6,0.7-0.9,1.2c-0.1,0.2-0.2,0.4-0.3,0.6l-4,0.5
					l-0.3,7l3.6,0.8c0.2,0.7,0.5,1.3,0.9,1.9l-1.5,3.7l5.9,3.8l2.5-2.7c0.7,0.1,1.4,0.2,2.2,0.2l2.4,3.2l6.2-3.2l-1.1-3.5
					C780.8,237,781.1,236.6,781.4,236.2z M770.3,234.4c-2.1-1.3-2.7-4.1-1.4-6.2s4.1-2.7,6.2-1.4c2.1,1.3,2.7,4.1,1.4,6.2
					S772.4,235.7,770.3,234.4z"/>
			</g>
			<g>
				<path class="st15" d="M424.4,498.2c0.1-0.2,0.2-0.4,0.3-0.6l4-0.5l0.3-7l-3.6-0.8c-0.2-0.7-0.5-1.3-0.9-1.9l1.5-3.7l-5.9-3.8
					l-2.5,2.7c-0.7-0.1-1.4-0.2-2.2-0.2l-2.4-3.2l-6.2,3.2l1.1,3.5c-0.3,0.4-0.6,0.7-0.9,1.2c-0.1,0.2-0.2,0.4-0.3,0.6l-4,0.5
					l-0.3,7l3.6,0.8c0.2,0.7,0.5,1.3,0.9,1.9l-1.5,3.7l5.9,3.8l2.5-2.7c0.7,0.1,1.4,0.2,2.2,0.2l2.4,3.2l6.2-3.2l-1.1-3.5
					C423.8,499,424.1,498.6,424.4,498.2z M413.3,496.4c-2.1-1.3-2.7-4.1-1.4-6.2c1.3-2.1,4.1-2.7,6.2-1.4c2.1,1.3,2.7,4.1,1.4,6.2
					C418.1,497.1,415.4,497.7,413.3,496.4z"/>
			</g>
			<g>
				<g>
					<path class="st10" d="M1852.6,228v-0.2h-52.4c-14.5,0-26.2,11.7-26.2,26.2s11.7,26.2,26.1,26.2c0.1,0,0.1,0,0.2,0h0.1
						c27.5,0,50.1-21.2,52.3-48.2L1852.6,228L1852.6,228z M1806.8,254.1c0,3.6-2.9,6.6-6.6,6.6c-3.6,0-6.6-2.9-6.6-6.6
						c0-3.6,2.9-6.6,6.6-6.6C1803.8,247.5,1806.8,250.5,1806.8,254.1z"/>
				</g>
				<g>
					
						<ellipse transform="matrix(0.896 -0.4441 0.4441 0.896 74.4086 825.8979)" class="st15" cx="1800.2" cy="254.1" rx="6.6" ry="6.6"/>
				</g>
				<g>
					<path class="st16" d="M1852.6,228v4.1v2.2c-3.3,25.9-25.5,46-52.3,46h49.3c0.1,0,0.3,0,0.4,0h2.5l0,0
						c14.8-0.1,26.1-11.8,26.1-26.2c0-14.5-12.2-26.2-26.1-26.2L1852.6,228L1852.6,228z"/>
				</g>
			</g>
			<g>
				<path class="st10" d="M136.4,50.4V22H65.2v3.5V164h99.6V54v-3.5L136.4,50.4L136.4,50.4z M129.3,107.2H86v-7.1h43.3V107.2z
					 M143.8,93H86.2v-7.1h57.5V93H143.8z M144,78.8H86v-7.1h58V78.8z"/>
			</g>
			<g>
				<rect x="86" y="71.7" class="st7" width="57.9" height="7.1"/>
			</g>
			<g>
				<rect x="86.2" y="85.9" class="st17" width="57.5" height="7.1"/>
			</g>
			<g>
				<rect x="86" y="100.1" class="st17" width="43.3" height="7.1"/>
			</g>
			<g>
				<polygon class="st4" points="136.4,50.4 164.8,50.4 136.4,22 				"/>
			</g>
			<g>
				<g>
					<g>
						<g>
							<path class="st6" d="M1390.2,50.5c3.3,0,17.6-6,17.6-6s-3-1.3-6.6-2.6c5.7-2,11.5-4.5,11.5-4.5s-5.8-2.4-11.4-4.4
								c3.7-1.4,6.8-2.7,6.8-2.7s-14.3-6-17.6-6c-1.1,0-2.2,0.3-3.1,0.9v24.7C1388.3,50.3,1389.2,50.5,1390.2,50.5z"/>
						</g>
					</g>
				</g>
				<g>
					<g>
						<g>
							<path class="st10" d="M1313.2,28.5l-12.3,6.3c-2.1,1.1-2.1,4.1,0,5.2l12.3,6.3c7.6,3.9,16,5.9,24.5,5.9h49.8v-2.4V25.1v-2.5
								h-49.8C1329.2,22.6,1320.8,24.6,1313.2,28.5z"/>
						</g>
					</g>
				</g>
				<g>
					<g>
						<g>
							<path class="st8" d="M1337.7,22.6c-8.5,0-16.9,2-24.5,5.9l-12.3,6.3c-1.1,0.5-1.6,1.6-1.6,2.6h88.2V25.1v-2.5H1337.7z"/>
						</g>
					</g>
				</g>
				<g>
					<g>
						<g>
							<path class="st17" d="M1388.2,7.7l-14.7,14.9h-13l0,0c0-8.2,6.7-14.9,14.9-14.9L1388.2,7.7z"/>
						</g>
					</g>
				</g>
				<g>
					<g>
						<g>
							<path class="st17" d="M1388.2,67.3l-14.7-14.9h-13l0,0c0,8.2,6.7,14.9,14.9,14.9H1388.2z"/>
						</g>
					</g>
				</g>
				<g>
					<g>
						<g>
							<g>
								<g>
									<path class="st7" d="M1322.4,37.4c0,3.2,2.6,5.8,5.8,5.8c2.1,0,4-1.2,5-2.9c0.5-0.9,0.8-1.8,0.8-2.9c0-1.9-0.9-3.6-2.4-4.7
										c-1-0.7-2.1-1.1-3.4-1.1C1325,31.6,1322.4,34.2,1322.4,37.4z"/>
								</g>
							</g>
						</g>
					</g>
				</g>
				<g>
					<g>
						<g>
							<g>
								<g>
									<path class="st7" d="M1340.8,37.4c0,3.2,2.6,5.8,5.8,5.8c2.1,0,4-1.2,5-2.9c0.5-0.9,0.8-1.8,0.8-2.9c0-1.9-0.9-3.6-2.4-4.7
										c-1-0.7-2.1-1.1-3.4-1.1C1343.4,31.6,1340.8,34.2,1340.8,37.4z"/>
								</g>
							</g>
						</g>
					</g>
				</g>
				<g>
					<g>
						<g>
							<g>
								<g>
									<path class="st7" d="M1359.3,37.4c0,3.2,2.6,5.8,5.8,5.8c2.1,0,4-1.2,5-2.9c0.5-0.9,0.8-1.8,0.8-2.9c0-1.9-0.9-3.6-2.4-4.7
										c-1-0.7-2.1-1.1-3.4-1.1C1361.9,31.6,1359.3,34.2,1359.3,37.4z"/>
								</g>
							</g>
						</g>
					</g>
				</g>
			</g>
			<g>
				<g>
					<g>
						<path class="st10" d="M1579.3,257.3c-1.8-2.1-4.4-3.4-7.3-3.5c-0.1,0-0.2,0-0.3,0h-5.1c0-0.2,0-0.3,0-0.5
							c0-6.3-5.1-11.4-11.4-11.4c-2.6,0-5.1,0.9-7,2.4c-2.4-3.8-6.6-6.4-11.4-6.4c-7.4,0-13.5,6-13.5,13.5c0,0.8,0.1,1.6,0.2,2.3
							h-1.7c-5.6,0-10.1,4.5-10.1,10.1c0,0.4,0,0.7,0.1,1.1c0.3,3,2,5.7,4.4,7.3c1.6,1.1,3.5,1.7,5.6,1.7h49.9
							c5.6,0,10.1-4.5,10.1-10.1C1581.8,261.3,1580.8,259.1,1579.3,257.3z"/>
					</g>
				</g>
			</g>
			<g>
				<g>
					<rect x="1488.3" y="131.4" class="st1" width="38.5" height="59.2"/>
					<rect x="1488.3" y="131.4" class="st15" width="9.2" height="59.2"/>
					<g>
						<g>
							<rect x="1488.3" y="131.4" class="st1" width="38.5" height="59.2"/>
							<rect x="1488.3" y="131.4" class="st15" width="9.2" height="59.2"/>
						</g>
						<g>
							<rect x="1504.2" y="142.5" class="st11" width="38.5" height="48.2"/>
							<rect x="1504.2" y="142.5" class="st9" width="9.2" height="48.2"/>
						</g>
					</g>
					<g>
						<g>
							<rect x="1532.9" y="131.4" class="st4" width="38.5" height="59.2"/>
							<rect x="1532.9" y="131.4" class="st10" width="9.2" height="59.2"/>
						</g>
						<g>
							<rect x="1548.8" y="142.5" class="st1" width="38.5" height="48.2"/>
							<rect x="1548.8" y="142.5" class="st15" width="9.2" height="48.2"/>
						</g>
					</g>
					<g>
						<g>
							<rect x="1577.6" y="131.4" class="st15" width="38.5" height="59.2"/>
							<rect x="1577.6" y="131.4" class="st16" width="9.2" height="59.2"/>
						</g>
						<g>
							<rect x="1593.5" y="142.5" class="st11" width="38.5" height="48.2"/>
							<rect x="1593.5" y="142.5" class="st9" width="9.2" height="48.2"/>
						</g>
					</g>
				</g>
			</g>
			<g>
				<g>
					<g>
						<g>
							<path class="st15" d="M1744.3,153.2h-46.5V98c0-1.4,1.1-2.5,2.5-2.5h41.4c1.4,0,2.5,1.1,2.5,2.5L1744.3,153.2L1744.3,153.2z"
								/>
						</g>
						<path class="st15" d="M1750.7,141.8h-6.4c-1.3,0-2.4-1.1-2.4-2.4c0-1.3,1.1-2.4,2.4-2.4h6.4c2.7,0,4.9-2.2,4.9-4.9v-13.9
							c0-2.7-2.2-4.9-4.9-4.9h-6.4c-1.3,0-2.4-1.1-2.4-2.4s1.1-2.4,2.4-2.4h6.4c5.3,0,9.6,4.3,9.6,9.6V132
							C1760.3,137.5,1756,141.8,1750.7,141.8z"/>
						<g>
							<rect x="1708.1" y="115.9" class="st13" width="16.3" height="18.5"/>
							<path class="st10" d="M1724.4,136.4h-16.3c-1.1,0-2.1-0.9-2.1-2.1v-18.5c0-1.1,0.9-2.1,2.1-2.1h16.3c1.1,0,2.1,0.9,2.1,2.1
								v18.5C1726.4,135.5,1725.5,136.4,1724.4,136.4z M1710.1,132.3h12.2V118h-12.2V132.3z"/>
						</g>
						<path class="st10" d="M1716.2,116.8c-1.1,0-2.1-0.9-2.1-2.1V95.5c0-1.1,0.9-2.1,2.1-2.1c1.1,0,2.1,0.9,2.1,2.1v19.2
							C1718.3,115.8,1717.3,116.8,1716.2,116.8z"/>
					</g>
					<g>
						<path class="st17" d="M1760.5,195.3h-71.9c-5.9,0-10.6-4.8-10.6-10.6l0,0c0-5.9,4.8-10.6,10.6-10.6h71.9V195.3z"/>
					</g>
					<g>
						<path class="st10" d="M1688.6,189.7c-2.8,0-5-2.2-5-5s2.2-5,5-5h71.9v10H1688.6z"/>
					</g>
					<g>
						<path class="st8" d="M1673,152.8h90.3c5.9,0,10.6,4.8,10.6,10.6l0,0c0,5.9-4.8,10.6-10.6,10.6H1673V152.8z"/>
					</g>
					<g>
						<path class="st10" d="M1763.4,158.4c2.8,0,5,2.2,5,5s-2.2,5-5,5H1673v-10H1763.4z"/>
					</g>
				</g>
				<path class="st10" d="M1729.3,68.5L1729.3,68.5c0-2,1.6-3.6,3.6-3.6h0.7c2,0,3.6-1.6,3.6-3.6l0,0c0-2-1.6-3.6-3.6-3.6h-28.9
					c-2,0-3.6,1.6-3.6,3.6l0,0c0,2,1.6,3.6,3.6,3.6h9.5c2,0,3.6,1.6,3.6,3.6l0,0c0,2-1.6,3.6-3.6,3.6h-1.4c-2,0-3.6,1.6-3.6,3.6l0,0
					c0,2,1.6,3.6,3.6,3.6h2.4c2,0,3.6,1.6,3.6,3.6l0,0c0,2,1.6,3.6,3.6,3.6h2.4c2,0,3.6-1.6,3.6-3.6l0,0c0-2,1.6-3.6,3.6-3.6h9.9
					c2,0,3.6-1.6,3.6-3.6l0,0c0-2-1.6-3.6-3.6-3.6h-8.8C1730.9,72.1,1729.3,70.5,1729.3,68.5z"/>
				<path class="st10" d="M1709.4,50.5h-15.7c-2,0-3.7-1.7-3.7-3.7l0,0c0-2,1.7-3.7,3.7-3.7h15.7c2,0,3.7,1.7,3.7,3.7l0,0
					C1713.1,48.9,1711.4,50.5,1709.4,50.5z"/>
				<path class="st10" d="M1724.4,41.4h-4.2c-2,0-3.7-1.7-3.7-3.7l0,0c0-2,1.7-3.7,3.7-3.7h4.2c2,0,3.7,1.7,3.7,3.7l0,0
					C1728.1,39.8,1726.4,41.4,1724.4,41.4z"/>
			</g>
			
				<linearGradient id="SVGID_21_" gradientUnits="userSpaceOnUse" x1="131" y1="298.3922" x2="131" y2="485.183" gradientTransform="matrix(1 0 0 1 0 26)">
				<stop  offset="0" style="stop-color:#E7BD42"/>
				<stop  offset="1" style="stop-color:#B78512"/>
			</linearGradient>
			<path class="st34" d="M171,524.7H91v-169c0-22.1,17.9-40,40-40l0,0c22.1,0,40,17.9,40,40V524.7z"/>
			<path class="st11" d="M217,525h-80V420.7c0-22.1,17.9-40,40-40l0,0c22.1,0,40,17.9,40,40V525z"/>
			<path class="st11" d="M107,525H0V380.3c0-29.5,24-53.5,53.5-53.5l0,0c29.5,0,53.5,24,53.5,53.5V525z"/>
			<g>
				<g>
					<path class="st8" d="M501.6,374.1c1.3-3.8,2-8,1.7-12.3c-0.8-16.5-14.3-29.9-30.8-30.6c-18.6-0.9-33.9,13.9-33.9,32.3
						c0,3.8,0.6,7.4,1.8,10.7c3.8,10.8,1.3,22.9-6,31.7c-6.7,8-10.8,18.3-11,29.5c-0.5,26.2,20.7,48.1,46.9,48.5
						c26.6,0.4,48.3-21.1,48.3-47.6c0-11.6-4.2-22.3-11.1-30.5C500.1,397,497.8,385,501.6,374.1z"/>
				</g>
				<g>
					<g>
						<path class="st1" d="M471,535c-0.9,0-1.6-0.7-1.6-1.6V332.6c0-0.9,0.7-1.6,1.6-1.6s1.6,0.7,1.6,1.6v200.8
							C472.6,534.3,471.9,535,471,535z"/>
					</g>
				</g>
				<path class="st1" d="M471.1,456.1c-0.6,0-1.2-0.4-1.4-1c-0.3-0.8,0.1-1.6,0.9-1.9L518,436c0.8-0.3,1.6,0.1,1.9,0.9
					c0.3,0.8-0.1,1.6-0.9,1.9L471.6,456C471.5,456,471.3,456.1,471.1,456.1z"/>
				<path class="st1" d="M471.1,406c-0.6,0-1.2-0.4-1.4-1c-0.3-0.8,0.1-1.6,0.9-1.9l30.1-10.7c0.8-0.3,1.6,0.1,1.9,0.9
					s-0.1,1.6-0.9,1.9L471.6,406C471.4,406,471.3,406,471.1,406z"/>
				<path class="st1" d="M471.1,361.4c-0.6,0-1.2-0.4-1.4-1c-0.3-0.8,0.1-1.6,0.9-1.9l29.1-10.2c0.8-0.3,1.6,0.1,1.9,0.9
					s-0.1,1.6-0.9,1.9l-29.1,10.2C471.4,361.3,471.3,361.4,471.1,361.4z"/>
				<path class="st1" d="M470.4,473.1c-0.2,0-0.3,0-0.5-0.1l-42.5-15.5c-0.8-0.3-1.1-1.1-0.9-1.9c0.3-0.8,1.1-1.1,1.9-0.9l42.5,15.5
					c0.8,0.3,1.1,1.1,0.9,1.9C471.5,472.7,471,473.1,470.4,473.1z"/>
				<path class="st1" d="M470.4,423c-0.2,0-0.3,0-0.5-0.1l-37.6-13.6c-0.8-0.3-1.1-1.1-0.9-1.9c0.3-0.8,1.1-1.1,1.9-0.9l37.6,13.6
					c0.8,0.3,1.1,1.1,0.9,1.9C471.5,422.7,471,423,470.4,423z"/>
				<path class="st1" d="M470.4,378.4c-0.2,0-0.3,0-0.5-0.1l-31.8-11.2c-0.8-0.3-1.2-1.1-0.9-1.9s1.1-1.2,1.9-0.9l31.8,11.2
					c0.8,0.3,1.2,1.1,0.9,1.9C471.6,378,471,378.4,470.4,378.4z"/>
			</g>
			<g>
				<g>
					<path class="st8" d="M638.6,325.1c1.3-3.8,2-8,1.7-12.3c-0.8-16.5-14.3-29.9-30.8-30.6c-18.6-0.9-33.9,13.9-33.9,32.3
						c0,3.8,0.6,7.4,1.8,10.7c3.8,10.8,1.3,22.9-6,31.7c-6.7,8-10.8,18.3-11,29.5c-0.5,26.2,20.7,48.1,46.9,48.5
						c26.6,0.4,48.3-21.1,48.3-47.6c0-11.6-4.2-22.3-11.1-30.5C637.1,348,634.8,336,638.6,325.1z"/>
				</g>
				<g>
					<g>
						<path class="st1" d="M608,486c-0.9,0-1.6-0.7-1.6-1.6V283.6c0-0.9,0.7-1.6,1.6-1.6c0.9,0,1.6,0.7,1.6,1.6v200.8
							C609.6,485.3,608.9,486,608,486z"/>
					</g>
				</g>
				<path class="st1" d="M608.1,407.1c-0.6,0-1.2-0.4-1.4-1c-0.3-0.8,0.1-1.6,0.9-1.9L655,387c0.8-0.3,1.6,0.1,1.9,0.9
					c0.3,0.8-0.1,1.6-0.9,1.9L608.6,407C608.5,407,608.3,407.1,608.1,407.1z"/>
				<path class="st1" d="M608.1,357c-0.6,0-1.2-0.4-1.4-1c-0.3-0.8,0.1-1.6,0.9-1.9l30.1-10.7c0.8-0.3,1.6,0.1,1.9,0.9
					c0.3,0.8-0.1,1.6-0.9,1.9L608.6,357C608.4,357,608.3,357,608.1,357z"/>
				<path class="st1" d="M608.1,312.4c-0.6,0-1.2-0.4-1.4-1c-0.3-0.8,0.1-1.6,0.9-1.9l29.1-10.2c0.8-0.3,1.6,0.1,1.9,0.9
					c0.3,0.8-0.1,1.6-0.9,1.9l-29.1,10.2C608.4,312.3,608.3,312.4,608.1,312.4z"/>
				<path class="st1" d="M607.4,424.1c-0.2,0-0.3,0-0.5-0.1l-42.5-15.5c-0.8-0.3-1.1-1.1-0.9-1.9c0.3-0.8,1.1-1.1,1.9-0.9l42.5,15.5
					c0.8,0.3,1.1,1.1,0.9,1.9C608.5,423.7,608,424.1,607.4,424.1z"/>
				<path class="st1" d="M607.4,374c-0.2,0-0.3,0-0.5-0.1l-37.6-13.6c-0.8-0.3-1.1-1.1-0.9-1.9c0.3-0.8,1.1-1.1,1.9-0.9l37.6,13.6
					c0.8,0.3,1.1,1.1,0.9,1.9C608.5,373.7,608,374,607.4,374z"/>
				<path class="st1" d="M607.4,329.4c-0.2,0-0.3,0-0.5-0.1l-31.8-11.2c-0.8-0.3-1.2-1.1-0.9-1.9s1.1-1.2,1.9-0.9l31.8,11.2
					c0.8,0.3,1.2,1.1,0.9,1.9C608.6,329,608,329.4,607.4,329.4z"/>
			</g>
			<g>
				<g class="st21">
					<path class="st7" d="M828.9,162.2l-49.1-31.7v0.1l0,0l7.3,58l14.4-9.1l9.8,15.7l13-8.2l-9.8-15.7L828.9,162.2z"/>
				</g>
				<g>
					<path class="st10" d="M831,156.6l-49.1-31.7v0.1l0,0l7.3,58l14.4-9.1l9.8,15.7l13-8.2l-9.8-15.7L831,156.6z"/>
				</g>
			</g>
			<g>
				<g class="st21">
					<path class="st7" d="M1480.4,44.3l-29.3-18.9l0,0l0,0l4.3,34.6l8.6-5.4l5.9,9.3l7.8-4.9l-5.9-9.3L1480.4,44.3z"/>
				</g>
				<g>
					<path class="st10" d="M1481.7,40.9L1452.4,22l0,0l0,0l4.3,34.6l8.6-5.4l5.9,9.3l7.8-4.9l-5.9-9.3L1481.7,40.9z"/>
				</g>
			</g>
			
				<linearGradient id="SVGID_22_" gradientUnits="userSpaceOnUse" x1="890.5" y1="5.8" x2="919.7" y2="5.8" gradientTransform="matrix(1 0 0 1 0 26)">
				<stop  offset="0" style="stop-color:#E7BD42"/>
				<stop  offset="1" style="stop-color:#F6F01D"/>
			</linearGradient>
			<polyline class="st35" points="892.5,71.6 892.5,40.9 917.7,15.7 917.7,-8 			"/>
			
				<linearGradient id="SVGID_23_" gradientUnits="userSpaceOnUse" x1="871.9858" y1="-5.1929" x2="911.8" y2="-5.1929" gradientTransform="matrix(1 0 0 1 0 26)">
				<stop  offset="0" style="stop-color:#E7BD42"/>
				<stop  offset="1" style="stop-color:#F6F01D"/>
			</linearGradient>
			<polyline class="st36" points="873.4,50.2 909.8,13.8 909.8,-10 			"/>
			<g>
				<circle class="st9" cx="892.5" cy="79.5" r="7.5"/>
				<circle class="st9" cx="868.5" cy="54.7" r="7.5"/>
				<circle class="st9" cx="914" cy="79.5" r="7.5"/>
			</g>
			
				<linearGradient id="SVGID_24_" gradientUnits="userSpaceOnUse" x1="911.975" y1="6.85" x2="927" y2="6.85" gradientTransform="matrix(1 0 0 1 0 26)">
				<stop  offset="0" style="stop-color:#E7BD42"/>
				<stop  offset="1" style="stop-color:#F6F01D"/>
			</linearGradient>
			<polyline class="st37" points="914,71.6 914,40.9 925,29.9 925,-5.9 			"/>
			<path class="st7" d="M515.2,49c-6.5,0-11.8-5.3-11.8-11.8c0-3.7,1.7-7.2,4.7-9.4c0.9-0.7,2.1-0.5,2.8,0.4
				c0.7,0.9,0.5,2.1-0.4,2.8c-2,1.5-3.2,3.8-3.2,6.3c0,4.3,3.5,7.9,7.9,7.9c4.3,0,7.9-3.5,7.9-7.9c0-2.5-1.2-4.8-3.2-6.3
				c-0.9-0.6-1-1.9-0.4-2.8s1.9-1,2.8-0.4c3,2.3,4.7,5.7,4.7,9.4C527,43.7,521.7,49,515.2,49z M517.1,35.2c0,1.1-0.9,2-2,2
				s-2-0.9-2-2v-9.9c0-1.1,0.9-2,2-2s2,0.9,2,2V35.2z"/>
			<path class="st9" d="M205,409.4c0,0.7-0.5,1.2-1.2,1.2h-3.6v35.5c0,4.1-2.7,7.6-6,7.6h-31.1c-3.3,0-6-3.4-6-7.5v-35.6h-3.6
				c-0.7,0-1.2-0.5-1.2-1.2V407c0-0.7,0.5-1.2,1.2-1.2h11.6l2.6-6.2c0.7-1.8,3-3.3,5-3.3h12c2,0,4.2,1.5,5,3.3l2.6,6.2h11.6
				c0.7,0,1.2,0.5,1.2,1.2v2.4H205z M195.4,410.6h-33.5v35.5c0,1.8,1,2.8,1.2,2.8h31.1c0.2,0,1.2-1,1.2-2.8V410.6z M171.5,440.6
				c0,0.7-0.5,1.2-1.2,1.2h-2.4c-0.7,0-1.2-0.5-1.2-1.2V419c0-0.7,0.5-1.2,1.2-1.2h2.4c0.7,0,1.2,0.5,1.2,1.2V440.6z M187,405.8
				l-1.8-4.4c-0.1-0.1-0.4-0.4-0.6-0.4h-11.9c-0.2,0-0.5,0.3-0.6,0.4l-1.8,4.4H187z M181.1,440.6c0,0.7-0.5,1.2-1.2,1.2h-2.4
				c-0.7,0-1.2-0.5-1.2-1.2V419c0-0.7,0.5-1.2,1.2-1.2h2.4c0.7,0,1.2,0.5,1.2,1.2V440.6z M190.6,440.6c0,0.7-0.5,1.2-1.2,1.2H187
				c-0.7,0-1.2-0.5-1.2-1.2V419c0-0.7,0.5-1.2,1.2-1.2h2.4c0.7,0,1.2,0.5,1.2,1.2L190.6,440.6L190.6,440.6z"/>
			<path class="st10" d="M864.8,58.6v13.2v9.9l-3.9-5.2c-0.6-0.9-1.7-1.4-2.8-1.4c-1.8,0-3.3,1.5-3.3,3.3c0,0.7,0.2,1.4,0.7,2
				l9.9,13.2c0.6,0.8,1.6,1.3,2.6,1.3h18.6c0.8,0,1.4-0.5,1.6-1.2l2.4-9.5c0.4-1.7,0.6-3.3,0.6-5v-5.6c0-1.4-1.1-2.6-2.5-2.6
				s-2.5,1.1-2.5,2.5h-0.8v-1.6c0-1.6-1.2-3-2.9-3c-1.6,0-2.9,1.3-2.9,2.9v1.7h-0.8v-2.3c0-1.9-1.4-3.5-3.3-3.5
				c-1.8,0-3.3,1.5-3.3,3.3v2.5h-0.8V58.7c0-1.9-1.4-3.5-3.3-3.5C866.2,55.3,864.8,56.7,864.8,58.6z"/>
			<path class="st10" d="M1322.8,363.6v13.2v9.9l-3.9-5.2c-0.6-0.9-1.7-1.4-2.8-1.4c-1.8,0-3.3,1.5-3.3,3.3c0,0.7,0.2,1.4,0.7,2
				l9.9,13.2c0.6,0.8,1.6,1.3,2.6,1.3h18.6c0.8,0,1.4-0.5,1.6-1.2l2.4-9.5c0.4-1.7,0.6-3.3,0.6-5v-5.6c0-1.4-1.1-2.6-2.5-2.6
				s-2.5,1.1-2.5,2.5h-0.8v-1.6c0-1.6-1.2-3-2.9-3c-1.6,0-2.9,1.3-2.9,2.9v1.7h-0.8v-2.3c0-1.9-1.4-3.5-3.3-3.5
				c-1.8,0-3.3,1.5-3.3,3.3v2.5h-0.8v-14.7c0-1.9-1.4-3.5-3.3-3.5C1324.2,360.3,1322.8,361.7,1322.8,363.6z"/>
			<path class="st17" d="M1553.2,260.6h-5.1v-8.1c0-0.4-0.3-0.7-0.7-0.7h-4.4c-0.4,0-0.7,0.3-0.7,0.7v8.1h-5.1
				c-0.4,0-0.7,0.3-0.7,0.7c0,0.2,0.1,0.4,0.2,0.5l8.1,8.1c0.1,0.1,0.3,0.2,0.5,0.2s0.4-0.1,0.5-0.2l8.1-8.1
				c0.1-0.2,0.2-0.3,0.2-0.6C1554,261,1553.6,260.6,1553.2,260.6z"/>
			<path class="st9" d="M50.7,399.8c0,1.4-1.1,2.5-2.5,2.5c-0.7,0-1.3-0.3-1.8-0.7l-13.1-13.1H23c-1.4,0-2.5-1.1-2.5-2.5v-15.1
				c0-1.4,1.1-2.5,2.5-2.5h10.3l13.1-13.1c0.5-0.5,1.1-0.7,1.8-0.7c1.4,0,2.5,1.1,2.5,2.5V399.8z M59.7,387.6
				c-0.3,0.2-0.7,0.2-1,0.2c-1.4,0-2.5-1.1-2.5-2.5c0-3,4.6-2.2,4.6-6.9s-4.6-3.9-4.6-6.9c0-1.4,1.1-2.5,2.5-2.5c0.3,0,0.7,0,1,0.2
				c3.7,1.5,6.1,5.3,6.1,9.3S63.4,386.1,59.7,387.6z M63.7,396.9c-0.3,0.1-0.7,0.2-1,0.2c-1.4,0-2.6-1.1-2.6-2.5
				c0-1.1,0.6-1.8,1.5-2.3c1.1-0.6,2-1,3-1.7c3.9-2.8,6.2-7.4,6.2-12.2c0-4.8-2.3-9.3-6.2-12.2c-0.9-0.7-1.9-1.2-3-1.7
				c-0.9-0.5-1.5-1.2-1.5-2.3c0-1.4,1.1-2.5,2.5-2.5c0.4,0,0.7,0.1,1,0.2c7.4,3.1,12.2,10.6,12.2,18.5S71.1,393.8,63.7,396.9z
				 M67.7,406.2c-0.3,0.1-0.7,0.2-1,0.2c-1.4,0-2.5-1.1-2.5-2.5c0-1.1,0.6-1.8,1.5-2.3c0.6-0.3,1.2-0.5,1.8-0.8
				c1.1-0.6,2.2-1.3,3.2-2C77.2,394,81,386.5,81,378.5s-3.8-15.5-10.3-20.3c-1-0.7-2.1-1.4-3.2-2c-0.6-0.3-1.2-0.5-1.8-0.8
				c-0.9-0.6-1.5-1.2-1.5-2.3c0-1.4,1.1-2.5,2.5-2.5c0.4,0,0.7,0.1,1,0.2c11.1,4.8,18.3,15.7,18.3,27.8S78.8,401.4,67.7,406.2z"/>
			<path class="st10" d="M1849.6,87.7c0,1.7-1.4,3.2-3.2,3.2c-0.8,0-1.6-0.3-2.2-0.9l-16.5-16.5h-13c-1.7,0-3.2-1.4-3.2-3.2V51.2
				c0-1.7,1.4-3.2,3.2-3.2h13l16.5-16.5c0.6-0.6,1.4-0.9,2.2-0.9c1.7,0,3.2,1.4,3.2,3.2V87.7z M1861,72.4c-0.4,0.2-0.8,0.2-1.2,0.2
				c-1.7,0-3.2-1.4-3.2-3.2c0-3.8,5.8-2.7,5.8-8.7s-5.8-5-5.8-8.7c0-1.8,1.4-3.2,3.2-3.2c0.4,0,0.8,0,1.2,0.2
				c4.7,1.8,7.7,6.7,7.7,11.7S1865.7,70.5,1861,72.4z M1866,84.1c-0.4,0.1-0.8,0.2-1.2,0.2c-1.8,0-3.2-1.4-3.2-3.2
				c0-1.4,0.8-2.3,1.9-2.9c1.3-0.7,2.6-1.3,3.8-2.2c4.9-3.6,7.8-9.3,7.8-15.3c0-6.1-2.9-11.8-7.8-15.3c-1.2-0.9-2.4-1.5-3.8-2.2
				c-1.1-0.6-1.9-1.5-1.9-2.9c0-1.7,1.4-3.2,3.2-3.2c0.4,0,0.9,0.1,1.3,0.2c9.3,3.9,15.4,13.3,15.4,23.4S1875.4,80.2,1866,84.1z
				 M1871,95.7c-0.4,0.1-0.8,0.3-1.3,0.3c-1.7,0-3.2-1.4-3.2-3.2c0-1.4,0.7-2.2,1.9-2.9c0.7-0.4,1.5-0.6,2.2-1
				c1.4-0.7,2.8-1.6,4.1-2.5c8.1-6,13-15.5,13-25.6s-4.8-19.6-13-25.6c-1.3-0.9-2.7-1.8-4.1-2.5c-0.7-0.4-1.5-0.6-2.2-1
				c-1.2-0.7-1.9-1.5-1.9-2.9c0-1.7,1.4-3.2,3.2-3.2c0.4,0,0.9,0.1,1.3,0.3c14,6,23.1,19.8,23.1,35.1S1885,89.7,1871,95.7z"/>
			<g>
				<g>
					<path class="st31" d="M107,226c-13.2,0-24,10.8-24,24v18h48v-18C131,236.8,120.2,226,107,226z"/>
				</g>
				<g>
					<path class="st15" d="M83,250c0-13.2,10.8-24,24-24s24,10.8,24,24v18h8v-18c0-17.6-14.4-32-32-32s-32,14.4-32,32v18h8V250z"/>
				</g>
				<g>
					<path class="st7" d="M75,364h64c8.8,0,16-7.2,16-16v-60v-4c0-8.8-7.2-16-16-16h-8H83h-8c-8.8,0-16,7.2-16,16v4v60
						C59,356.8,66.2,364,75,364z M109.9,315.5L115,336h-1h-14h-1l5.1-20.5l0.9-3.7c-2.8-0.7-5.1-2.9-5.8-5.7c-0.2-0.6-0.3-1.3-0.3-2
						c0-4.4,3.6-8,8-8s8,3.6,8,8c0,0.7-0.1,1.4-0.3,2c-0.7,2.8-3,5-5.8,5.7L109.9,315.5z"/>
				</g>
				<g>
					<path class="st1" d="M107,300c3.7,0,6.9,2.6,7.7,6c0.2-0.6,0.3-1.3,0.3-2c0-4.4-3.6-8-8-8s-8,3.6-8,8c0,0.7,0.1,1.4,0.3,2
						C100.1,302.6,103.3,300,107,300z"/>
				</g>
				<g>
					<path class="st16" d="M114.7,306c-0.9-3.5-4-6-7.7-6s-6.9,2.6-7.7,6c0.7,2.8,3,5,5.8,5.7l-0.9,3.7L99,336h1h14h1l-5.1-20.5
						l-0.9-3.7C111.8,311,114,308.8,114.7,306z"/>
				</g>
			</g>
			<rect x="1788" y="124" class="st10" width="132" height="92"/>
			<path class="st17" d="M990.7,232.2c-2.3,0-4.2-1.8-4.2-4.2s1.9-4.2,4.2-4.2s4.2,1.8,4.2,4.2S993,232.2,990.7,232.2z M997.4,217.1
				c-2.9,0-5.2-2.3-5.2-5.2s2.3-5.2,5.2-5.2s5.2,2.3,5.2,5.2S1000.2,217.1,997.4,217.1z M997.4,248.4c-2.3,0-4.2-1.9-4.2-4.2
				s1.9-4.2,4.2-4.2s4.2,1.8,4.2,4.2C1001.5,246.5,999.7,248.4,997.4,248.4z M1013.5,211.5c-3.4,0-6.2-2.8-6.2-6.2s2.8-6.2,6.2-6.2
				s6.2,2.8,6.2,6.2C1019.8,208.7,1017,211.5,1013.5,211.5z M1013.5,255.1c-2.3,0-4.2-1.8-4.2-4.2s1.9-4.2,4.2-4.2s4.2,1.8,4.2,4.2
				S1015.8,255.1,1013.5,255.1z M1029.7,219.2c-4,0-7.3-3.2-7.3-7.3c0-4,3.2-7.3,7.3-7.3c4,0,7.3,3.3,7.3,7.3
				S1033.7,219.2,1029.7,219.2z M1029.7,248.4c-2.3,0-4.2-1.9-4.2-4.2s1.9-4.2,4.2-4.2c2.3,0,4.2,1.8,4.2,4.2
				C1033.8,246.5,1032,248.4,1029.7,248.4z M1036.4,232.2c-2.3,0-4.2-1.8-4.2-4.2s1.9-4.2,4.2-4.2s4.2,1.8,4.2,4.2
				S1038.7,232.2,1036.4,232.2z"/>
			<path class="st13" d="M1896.9,161.7v14.5c0,2.7-2.1,4.8-4.8,4.8v6c0,3.3-2.7,6-6,6h-69.9c-3.3,0-6-2.7-6-6v-36.2c0-3.3,2.7-6,6-6
				h69.9c3.3,0,6,2.7,6,6v6C1894.8,156.8,1896.9,159,1896.9,161.7z M1892.1,161.7h-4.8v-10.8c0-0.7-0.5-1.2-1.2-1.2h-69.9
				c-0.7,0-1.2,0.5-1.2,1.2V187c0,0.7,0.5,1.2,1.2,1.2h69.9c0.7,0,1.2-0.5,1.2-1.2v-10.8h4.8V161.7z M1819.8,154.4h33.7v28.9h-33.7
				V154.4z"/>
			<g>
				<g>
					<g>
						<g>
							<rect x="1160.8" y="434.1" class="st7" width="10.3" height="10.3"/>
						</g>
					</g>
					<g>
						<g>
							<path class="st13" d="M1165.9,415.2v-65c-14.9,0-27.1,11.1-27.1,27.1c0,15.9,13.7,26.3,13.7,37.9c0.8,0,2.3,0,4.1,0
								C1159.3,415.2,1162.6,415.2,1165.9,415.2z"/>
						</g>
					</g>
					<g>
						<g>
							<path class="st11" d="M1165.9,350.3v65c3.4,0,6.6,0,9.2,0c1.8,0,3.3,0,4.1,0c0-11.6,13.7-22,13.7-37.9
								C1193,361.4,1180.9,350.3,1165.9,350.3z"/>
						</g>
					</g>
					<g>
						<g>
							<path class="st15" d="M1165.9,442.1h9.2c2.3,0,4.1-1.9,4.1-4.1v-18.6h-13.3L1165.9,442.1L1165.9,442.1z"/>
						</g>
					</g>
					<g>
						<g>
							<path class="st16" d="M1152.6,419.4V438c0,2.3,1.9,4.1,4.1,4.1h9.2v-22.7H1152.6z"/>
						</g>
					</g>
					<g>
						<g>
							<path class="st7" d="M1156.8,415.2c-1.8,0-3.3,0-4.1,0v4.1h13.3v-4.1C1162.6,415.2,1159.3,415.2,1156.8,415.2z"/>
						</g>
					</g>
					<g>
						<g>
							<path class="st7" d="M1175.1,415.2c-2.6,0-5.8,0-9.2,0v4.1h13.3v-4.1C1178.4,415.2,1177,415.2,1175.1,415.2z"/>
						</g>
					</g>
				</g>
			</g>
			<g>
				<g>
					<g>
						<path class="st1" d="M575.8,214.1c0.1-1,0.2-2.1,0.2-3.2c0-1.1-0.1-2.1-0.2-3.2h-7.2c-0.2-1.6-0.7-3.2-1.3-4.7l6.2-3.6
							c-0.9-2-1.9-3.8-3.2-5.5l-6.2,3.6c-1-1.3-2.2-2.4-3.4-3.4l3.6-6.2c-1.7-1.3-3.5-2.3-5.5-3.2l-3.6,6.2c-1.5-0.6-3.1-1-4.7-1.3
							v-7.2c-1-0.1-2.1-0.2-3.2-0.2c-1.1,0-2.1,0.1-3.2,0.2v7.2c-1.6,0.2-3.2,0.7-4.7,1.3l-3.6-6.2c-2,0.9-3.8,1.9-5.5,3.2l3.6,6.2
							c-1.3,1-2.4,2.2-3.4,3.4l-6.2-3.6c-1.3,1.7-2.3,3.5-3.2,5.5l6.2,3.6c-0.6,1.5-1,3.1-1.3,4.7h-7.2c-0.1,1-0.2,2.1-0.2,3.2
							c0,1.1,0.1,2.1,0.2,3.2h7.2c0.2,1.6,0.7,3.2,1.3,4.7l-6.2,3.6c0.9,2,1.9,3.8,3.2,5.5l6.2-3.6c1,1.3,2.2,2.4,3.4,3.4l-3.6,6.2
							c1.7,1.3,3.5,2.3,5.5,3.2l3.6-6.2c1.5,0.6,3.1,1,4.7,1.2v7.2c1,0.1,2.1,0.2,3.2,0.2c1.1,0,2.1-0.1,3.2-0.2v-7.2
							c1.6-0.2,3.2-0.7,4.7-1.2l3.6,6.2c2-0.9,3.8-1.9,5.5-3.2l-3.6-6.2c1.3-1,2.4-2.2,3.4-3.4l6.2,3.6c1.3-1.7,2.3-3.5,3.2-5.5
							l-6.2-3.6c0.6-1.5,1-3.1,1.3-4.7H575.8z"/>
					</g>
				</g>
				<g>
					<g>
						<path class="st10" d="M547.4,223.7c-7,0-12.7-5.7-12.7-12.7s5.7-12.7,12.7-12.7s12.7,5.7,12.7,12.7
							C560.1,218,554.4,223.7,547.4,223.7z"/>
					</g>
				</g>
				<g>
					<g>
						
							<ellipse transform="matrix(0.1846 -0.9828 0.9828 0.1846 238.9193 709.9288)" class="st6" cx="547.3" cy="211" rx="5.6" ry="5.6"/>
					</g>
				</g>
			</g>
			
				<linearGradient id="SVGID_25_" gradientUnits="userSpaceOnUse" x1="1562.4" y1="-15.973" x2="1562.4" y2="76.5453" gradientTransform="matrix(1 0 0 1 0 26)">
				<stop  offset="0" style="stop-color:#9EBCE6"/>
				<stop  offset="1" style="stop-color:#2DBCE6"/>
			</linearGradient>
			<rect x="1480" class="st38" width="164.8" height="106"/>
			<g>
				<g>
					
						<linearGradient id="SVGID_26_" gradientUnits="userSpaceOnUse" x1="1574.2001" y1="18" x2="1574.2001" y2="154.0037" gradientTransform="matrix(1 0 0 1 0 26)">
						<stop  offset="0" style="stop-color:#E7BD42"/>
						<stop  offset="1" style="stop-color:#B78512"/>
					</linearGradient>
					<path class="st39" d="M1596.9,87V53.4c0-12.5-10.2-22.7-22.7-22.7l0,0c-12.5,0-22.7,10.2-22.7,22.7V87H1596.9z"/>
					<path class="st11" d="M1622.8,87c-1.6-10.9-11-19.4-22.4-19.4l0,0c-11.4,0-20.8,8.4-22.4,19.4H1622.8z"/>
					<path class="st11" d="M1560.6,87V67.4c0-16.7-13.6-30.3-30.3-30.3l0,0c-16.7,0-30.3,13.6-30.3,30.3V87H1560.6z"/>
				</g>
				<g>
					<g>
						<path class="st7" d="M1489.2,32.5v48.4c0,5.6,4.6,10.1,10.1,10.1h4.1h123c2.8,0,5.3-1.1,7.2-3c1.8-1.8,3-4.4,3-7.2V32.4
							c0-5.6-4.6-10.1-10.1-10.1h-123h-4.1C1493.8,22.3,1489.2,26.9,1489.2,32.5z M1630.4,56.7c0,1.9-1.6,3.5-3.5,3.5
							s-3.5-1.6-3.5-3.5s1.6-3.5,3.5-3.5C1628.9,53.2,1630.4,54.7,1630.4,56.7z M1616.5,26.6v60.2h-107.1V26.6H1616.5z"/>
					</g>
					<g>
						<path class="st10" d="M1623.4,56.7c0,1.9,1.6,3.5,3.5,3.5s3.5-1.6,3.5-3.5s-1.6-3.5-3.5-3.5S1623.4,54.7,1623.4,56.7z"/>
					</g>
					<polygon class="st10" points="1573,57.4 1558.6,49.1 1558.6,65.7 					"/>
				</g>
			</g>
			
				<linearGradient id="SVGID_27_" gradientUnits="userSpaceOnUse" x1="300" y1="384.8874" x2="300" y2="494.571" gradientTransform="matrix(1 0 0 1 0 26)">
				<stop  offset="0" style="stop-color:#9EBCE6"/>
				<stop  offset="1" style="stop-color:#2DBCE6"/>
			</linearGradient>
			<rect x="217" y="399" class="st40" width="166" height="125.7"/>
			<g>
				<g>
					<path class="st10" d="M369.8,511.4H231.4c-2.9,0-5.2-2.3-5.2-5.2l0,0c0-2.9,2.3-5.2,5.2-5.2h138.4c2.9,0,5.2,2.3,5.2,5.2l0,0
						C375,509,372.7,511.4,369.8,511.4z"/>
				</g>
				<g>
					<g>
						<rect x="297.9" y="429" class="st1" width="21.1" height="72"/>
					</g>
					<g>
						<rect x="319" y="417.8" class="st15" width="21.1" height="83.2"/>
					</g>
					<g>
						<rect x="340.1" y="426" class="st1" width="21.1" height="75"/>
					</g>
					<g>
						<rect x="297.9" y="442.4" class="st16" width="21.1" height="45.1"/>
					</g>
				</g>
				<g>
					<g>
						<path class="st10" d="M272.7,475.5h-21.3v-16c0-2.2,0.7-4.2,1.8-5.9c1.2-1.9,3-3.3,5.2-4.1c1.1-0.4,2.4-0.7,3.7-0.7l0,0
							c5.9,0,10.6,4.8,10.6,10.6L272.7,475.5L272.7,475.5z"/>
						<path class="st10" d="M272.7,477.3h-21.3c-1,0-1.8-0.8-1.8-1.8v-16c0-2.5,0.7-4.8,2.1-6.9c1.5-2.2,3.6-3.9,6.1-4.8
							c1.4-0.5,2.8-0.8,4.3-0.8c6.9,0,12.5,5.6,12.5,12.5v16C274.5,476.5,273.7,477.3,272.7,477.3z M253.2,473.6h17.6v-14.1
							c0-4.9-3.9-8.8-8.8-8.8c-1,0-2.1,0.2-3,0.5c-1.7,0.6-3.3,1.8-4.3,3.4c-1,1.4-1.5,3.1-1.5,4.9V473.6z"/>
					</g>
					<path class="st11" d="M251.4,470.9h-3.1c-1,0-1.8-0.8-1.8-1.8s0.8-1.8,1.8-1.8h3.1c1,0,1.8,0.8,1.8,1.8
						S252.4,470.9,251.4,470.9z"/>
					<path class="st10" d="M251.4,462.4h-3.1c-1,0-1.8-0.8-1.8-1.8s0.8-1.8,1.8-1.8h3.1c1,0,1.8,0.8,1.8,1.8
						S252.4,462.4,251.4,462.4z"/>
					<path class="st10" d="M258.4,451.3c-0.7,0-1.4-0.5-1.7-1.2l-1.3-3.4c-0.4-0.9,0.1-2,1.1-2.4c0.9-0.3,2,0.1,2.4,1.1l1.3,3.4
						c0.4,0.9-0.1,2-1.1,2.4C258.8,451.3,258.6,451.3,258.4,451.3z"/>
					<path class="st10" d="M253.2,455.5c-0.3,0-0.7-0.1-1-0.3l-2.9-1.9c-0.8-0.6-1.1-1.7-0.5-2.5s1.7-1.1,2.5-0.5l2.9,1.9
						c0.8,0.6,1.1,1.7,0.5,2.5C254.4,455.2,253.8,455.5,253.2,455.5z"/>
					<path class="st11" d="M275.8,470.9h-3.1c-1,0-1.8-0.8-1.8-1.8s0.8-1.8,1.8-1.8h3.1c1,0,1.8,0.8,1.8,1.8
						C277.6,470.1,276.8,470.9,275.8,470.9z"/>
					<path class="st10" d="M275.8,462.4h-3.1c-1,0-1.8-0.8-1.8-1.8s0.8-1.8,1.8-1.8h3.1c1,0,1.8,0.8,1.8,1.8
						C277.6,461.6,276.8,462.4,275.8,462.4z"/>
					<path class="st10" d="M265.7,451.3c-0.2,0-0.4,0-0.6-0.1c-0.9-0.4-1.4-1.4-1.1-2.4l1.2-3.3c0.4-1,1.4-1.4,2.4-1.1
						c0.9,0.4,1.4,1.4,1.1,2.4l-1.2,3.3C267.2,450.9,266.5,451.3,265.7,451.3z"/>
					<path class="st10" d="M270.9,455.5c-0.6,0-1.2-0.3-1.5-0.8c-0.6-0.8-0.3-2,0.5-2.5l2.9-1.9c0.8-0.6,2-0.3,2.5,0.5
						c0.6,0.8,0.3,2-0.5,2.5l-2.9,1.9C271.6,455.4,271.3,455.5,270.9,455.5z"/>
					<g>
						<path class="st1" d="M267.8,500.9h-11.7c-6.9,0-12.5-5.6-12.5-12.5v-22.8h36.7v22.8C280.3,495.3,274.7,500.9,267.8,500.9z"/>
					</g>
				</g>
				<rect x="340.1" y="438.5" class="st16" width="21" height="4.9"/>
				<rect x="340.1" y="483" class="st16" width="21" height="4.9"/>
			</g>
		</g>
	</g>
</g>
</svg>
